<?xml version="1.0" encoding="UTF-8" standalone="no"?>
<!DOCTYPE svg PUBLIC "-//W3C//DTD SVG 1.1//EN"
 "http://www.w3.org/Graphics/SVG/1.1/DTD/svg11.dtd">
<!-- Generated by graphviz version 2.38.0 (20140413.2041)
 -->
<!-- Title: G Pages: 1 -->
<svg width="2042pt" height="1761pt"
 viewBox="0.00 0.00 2041.96 1761.42" xmlns="http://www.w3.org/2000/svg" xmlns:xlink="http://www.w3.org/1999/xlink">
<g id="graph0" class="graph" transform="scale(1 1) rotate(0) translate(1086.95 882.755)">
<title>G</title>
<polygon fill="white" stroke="none" points="-1086.95,878.669 -1086.95,-882.755 955.009,-882.755 955.009,878.669 -1086.95,878.669"/>
<!-- 1 -->
<g id="node1" class="node"><title>1</title>
<ellipse fill="#883e54" stroke="black" cx="-869.24" cy="-286.712" rx="54" ry="54"/>
<text text-anchor="middle" x="-869.24" y="-283.012" font-family="Times New Roman,serif" font-size="14.00">1</text>
</g>
<!-- 1831 -->
<g id="node6" class="node"><title>1831</title>
<ellipse fill="#6c3d4f" stroke="black" cx="-732.196" cy="-177.933" rx="42.5" ry="42.5"/>
<text text-anchor="middle" x="-732.196" y="-174.233" font-family="Times New Roman,serif" font-size="14.00">1831</text>
</g>
<!-- 1&#45;&#45;1831 -->
<g id="edge1" class="edge"><title>1&#45;&#45;1831</title>
<path fill="none" stroke="#09f609" d="M-826.63,-252.89C-806.986,-237.298 -784.011,-219.061 -765.641,-204.48"/>
</g>
<!-- 328 -->
<g id="node18" class="node"><title>328</title>
<ellipse fill="#913958" stroke="black" cx="-947.304" cy="-438.565" rx="23.5" ry="23.5"/>
<text text-anchor="middle" x="-947.304" y="-434.865" font-family="Times New Roman,serif" font-size="14.00">328</text>
</g>
<!-- 1&#45;&#45;328 -->
<g id="edge3" class="edge"><title>1&#45;&#45;328</title>
<path fill="none" stroke="#18e716" d="M-893.94,-334.76C-908.234,-362.565 -925.506,-396.163 -936.449,-417.451"/>
</g>
<!-- 3717 -->
<g id="node34" class="node"><title>3717</title>
<ellipse fill="#ba5073" stroke="black" cx="-1038.69" cy="-273.834" rx="31.2258" ry="16.0303"/>
<text text-anchor="middle" x="-1038.69" y="-270.134" font-family="Times New Roman,serif" font-size="14.00">3717</text>
</g>
<!-- 1&#45;&#45;3717 -->
<g id="edge2" class="edge"><title>1&#45;&#45;3717</title>
<path fill="none" stroke="#0ff00e" d="M-923.322,-282.602C-951.217,-280.482 -984.234,-277.973 -1007.78,-276.183"/>
</g>
<!-- 1027 -->
<g id="node2" class="node"><title>1027</title>
<ellipse fill="#543241" stroke="black" cx="-540.823" cy="-659.677" rx="51.5" ry="51.5"/>
<text text-anchor="middle" x="-540.823" y="-655.977" font-family="Times New Roman,serif" font-size="14.00" fill="white">1027</text>
</g>
<!-- 6636 -->
<g id="node7" class="node"><title>6636</title>
<ellipse fill="#611431" stroke="black" cx="-579.354" cy="-838.255" rx="40.5" ry="40.5"/>
<text text-anchor="middle" x="-579.354" y="-834.555" font-family="Times New Roman,serif" font-size="14.00">6636</text>
</g>
<!-- 1027&#45;&#45;6636 -->
<g id="edge4" class="edge"><title>1027&#45;&#45;6636</title>
<path fill="none" stroke="#0df20c" d="M-551.762,-710.373C-557.791,-738.317 -565.168,-772.507 -570.776,-798.501"/>
</g>
<!-- 2502 -->
<g id="node24" class="node"><title>2502</title>
<ellipse fill="#6d2568" stroke="black" cx="-521.301" cy="-453.098" rx="29.3748" ry="17.5"/>
<text text-anchor="middle" x="-521.301" y="-449.398" font-family="Times New Roman,serif" font-size="14.00">2502</text>
</g>
<!-- 1027&#45;&#45;2502 -->
<g id="edge5" class="edge"><title>1027&#45;&#45;2502</title>
<path fill="none" stroke="#1ae517" d="M-535.973,-608.348C-531.727,-563.418 -525.805,-500.752 -522.958,-470.63"/>
</g>
<!-- 825 -->
<g id="node3" class="node"><title>825</title>
<polygon fill="#b6cfd4" stroke="black" points="778.594,755.405 778.594,714.812 749.891,686.109 709.298,686.109 680.594,714.812 680.594,755.405 709.298,784.109 749.891,784.109 778.594,755.405"/>
<text text-anchor="middle" x="729.594" y="738.809" font-family="Times New Roman,serif" font-size="14.00">825</text>
</g>
<!-- 3602 -->
<g id="node11" class="node"><title>3602</title>
<polygon fill="#404c36" stroke="black" points="560.226,636.231 526.726,613.083 493.226,636.231 506.022,673.685 547.43,673.685 560.226,636.231"/>
<text text-anchor="middle" x="526.726" y="650.283" font-family="Times New Roman,serif" font-size="14.00" fill="white">3602</text>
</g>
<!-- 825&#45;&#45;3602 -->
<g id="edge6" class="edge"><title>825&#45;&#45;3602</title>
<path fill="none" stroke="#26d921" d="M681.26,714.017C641.062,696.476 585.369,672.173 552.983,658.041"/>
</g>
<!-- 52 -->
<g id="node4" class="node"><title>52</title>
<ellipse fill="#582d3d" stroke="black" cx="-955.652" cy="38.2737" rx="46.5" ry="46.5"/>
<text text-anchor="middle" x="-955.652" y="41.9737" font-family="Times New Roman,serif" font-size="14.00" fill="white">52</text>
</g>
<!-- 3635 -->
<g id="node10" class="node"><title>3635</title>
<ellipse fill="#762e45" stroke="black" cx="-823.642" cy="-27.5369" rx="35" ry="35"/>
<text text-anchor="middle" x="-823.642" y="-23.8369" font-family="Times New Roman,serif" font-size="14.00">3635</text>
</g>
<!-- 52&#45;&#45;3635 -->
<g id="edge7" class="edge"><title>52&#45;&#45;3635</title>
<path fill="none" stroke="#0ef10d" d="M-913.883,17.4508C-894.848,7.96121 -872.689,-3.08528 -855.094,-11.8573"/>
</g>
<!-- 1975 -->
<g id="node5" class="node"><title>1975</title>
<polygon fill="#7b5e28" stroke="black" points="-163.62,-104.584 -252.62,-104.584 -252.62,-15.5845 -163.62,-15.5845 -163.62,-104.584"/>
<text text-anchor="middle" x="-208.12" y="-56.3845" font-family="Times New Roman,serif" font-size="14.00">1975</text>
</g>
<!-- 2010 -->
<g id="node13" class="node"><title>2010</title>
<polygon fill="#736b49" stroke="black" points="1.40299,-59.9318 -58.597,-59.9318 -58.597,0.0681803 1.40299,0.0681803 1.40299,-59.9318"/>
<text text-anchor="middle" x="-28.597" y="-26.2318" font-family="Times New Roman,serif" font-size="14.00">2010</text>
</g>
<!-- 1975&#45;&#45;2010 -->
<g id="edge8" class="edge"><title>1975&#45;&#45;2010</title>
<path fill="none" stroke="#12ed11" d="M-163.282,-52.5535C-130.672,-47.0763 -87.403,-39.8089 -58.8144,-35.0071"/>
</g>
<!-- 1376 -->
<g id="node19" class="node"><title>1376</title>
<ellipse fill="#9e4b67" stroke="black" cx="-358.609" cy="-160.386" rx="25.692" ry="22.5"/>
<text text-anchor="middle" x="-358.609" y="-156.686" font-family="Times New Roman,serif" font-size="14.00">1376</text>
</g>
<!-- 1975&#45;&#45;1376 -->
<g id="edge10" class="edge"><title>1975&#45;&#45;1376</title>
<path fill="none" stroke="#e91614" d="M-252.864,-89.9066C-281.109,-108.732 -316.256,-132.157 -338.065,-146.693"/>
</g>
<!-- 131 -->
<g id="node28" class="node"><title>131</title>
<polygon fill="#796b46" stroke="black" points="-261.143,79.533 -298.143,79.533 -298.143,108.533 -261.143,108.533 -261.143,79.533"/>
<text text-anchor="middle" x="-279.643" y="97.733" font-family="Times New Roman,serif" font-size="14.00">131</text>
</g>
<!-- 1975&#45;&#45;131 -->
<g id="edge9" class="edge"><title>1975&#45;&#45;131</title>
<path fill="none" stroke="#12ed11" d="M-228.807,-15.5073C-243.66,16.4966 -262.759,57.6501 -272.789,79.2643"/>
</g>
<!-- 1831&#45;&#45;3635 -->
<g id="edge11" class="edge"><title>1831&#45;&#45;3635</title>
<path fill="none" stroke="#0af509" d="M-754.332,-141.526C-769.978,-115.794 -790.699,-81.7159 -805.397,-57.5427"/>
</g>
<!-- 3077 -->
<g id="node29" class="node"><title>3077</title>
<ellipse fill="#aa6996" stroke="black" cx="-534.997" cy="-245.504" rx="31.2258" ry="16.0303"/>
<text text-anchor="middle" x="-534.997" y="-241.804" font-family="Times New Roman,serif" font-size="14.00">3077</text>
</g>
<!-- 1831&#45;&#45;3077 -->
<g id="edge12" class="edge"><title>1831&#45;&#45;3077</title>
<path fill="none" stroke="#15ea13" d="M-691.814,-191.77C-652.713,-205.168 -594.582,-225.086 -561.176,-236.533"/>
</g>
<!-- 1839 -->
<g id="node8" class="node"><title>1839</title>
<polygon fill="#055e6d" stroke="black" points="-1044.45,164.568 -1082.95,203.068 -1044.45,241.568 -1005.95,203.068 -1044.45,164.568"/>
<text text-anchor="middle" x="-1044.45" y="206.768" font-family="Times New Roman,serif" font-size="14.00">1839</text>
</g>
<!-- 1839&#45;&#45;3635 -->
<g id="edge13" class="edge"><title>1839&#45;&#45;3635</title>
<path fill="none" stroke="#41be31" d="M-1025.24,183.006C-985.054,141.037 -892.181,44.0434 -847.932,-2.16833"/>
</g>
<!-- 2 -->
<g id="node9" class="node"><title>2</title>
<polygon fill="#1d2a2a" stroke="black" points="424.427,507.553 387.927,482.332 351.427,507.553 365.369,548.361 410.485,548.361 424.427,507.553"/>
<text text-anchor="middle" x="387.927" y="522.532" font-family="Times New Roman,serif" font-size="14.00" fill="white">2</text>
</g>
<!-- 2&#45;&#45;3602 -->
<g id="edge14" class="edge"><title>2&#45;&#45;3602</title>
<path fill="none" stroke="#0bf40b" d="M413.062,541.967C439.624,566.414 481.032,604.526 505.855,627.373"/>
</g>
<!-- 1765 -->
<g id="node12" class="node"><title>1765</title>
<polygon fill="#373f2f" stroke="black" points="274.465,590.924 242.965,569.158 211.465,590.924 223.496,626.142 262.433,626.142 274.465,590.924"/>
<text text-anchor="middle" x="242.965" y="604.358" font-family="Times New Roman,serif" font-size="14.00" fill="white">1765</text>
</g>
<!-- 2&#45;&#45;1765 -->
<g id="edge15" class="edge"><title>2&#45;&#45;1765</title>
<path fill="none" stroke="#14eb13" d="M360.319,534.415C333.868,549.346 294.271,571.697 268.525,586.23"/>
</g>
<!-- 512 -->
<g id="node17" class="node"><title>512</title>
<polygon fill="#7d7a5b" stroke="black" points="382.895,260.557 332.895,260.557 332.895,310.557 382.895,310.557 382.895,260.557"/>
<text text-anchor="middle" x="357.895" y="289.257" font-family="Times New Roman,serif" font-size="14.00">512</text>
</g>
<!-- 2&#45;&#45;512 -->
<g id="edge16" class="edge"><title>2&#45;&#45;512</title>
<path fill="none" stroke="#14eb13" d="M383.56,484.912C377.459,437.525 366.528,352.61 361.114,310.56"/>
</g>
<!-- 2566 -->
<g id="node32" class="node"><title>2566</title>
<polygon fill="#918899" stroke="black" points="303.372,745.239 303.372,730.569 283.542,720.196 255.497,720.196 235.666,730.569 235.666,745.239 255.497,755.611 283.542,755.611 303.372,745.239"/>
<text text-anchor="middle" x="269.519" y="741.604" font-family="Times New Roman,serif" font-size="14.00">2566</text>
</g>
<!-- 2&#45;&#45;2566 -->
<g id="edge17" class="edge"><title>2&#45;&#45;2566</title>
<path fill="none" stroke="#20df1c" d="M371.958,548.377C346.96,594.626 299.351,682.71 279.062,720.249"/>
</g>
<!-- 1321 -->
<g id="node31" class="node"><title>1321</title>
<polygon fill="#22222b" stroke="black" points="567.192,848.322 528.777,834.36 490.362,848.322 505.035,870.913 552.519,870.913 567.192,848.322"/>
<text text-anchor="middle" x="528.777" y="858.266" font-family="Times New Roman,serif" font-size="14.00" fill="white">1321</text>
</g>
<!-- 3602&#45;&#45;1321 -->
<g id="edge18" class="edge"><title>3602&#45;&#45;1321</title>
<path fill="none" stroke="#1ce319" d="M526.994,673.773C527.411,716.056 528.205,796.61 528.577,834.245"/>
</g>
<!-- 1720 -->
<g id="node27" class="node"><title>1720</title>
<polygon fill="#5f5937" stroke="black" points="156.786,1.62895 112.786,1.62895 112.786,32.6289 156.786,32.6289 156.786,1.62895"/>
<text text-anchor="middle" x="134.786" y="20.8289" font-family="Times New Roman,serif" font-size="14.00">1720</text>
</g>
<!-- 2010&#45;&#45;1720 -->
<g id="edge19" class="edge"><title>2010&#45;&#45;1720</title>
<path fill="none" stroke="#08f707" d="M1.75124,-21.1903C33.866,-11.9401 83.7836,2.43818 112.467,10.7002"/>
</g>
<!-- 1958 -->
<g id="node14" class="node"><title>1958</title>
<polygon fill="#a49662" stroke="black" points="662.169,4.87906 604.169,4.87906 604.169,62.8791 662.169,62.8791 662.169,4.87906"/>
<text text-anchor="middle" x="633.169" y="37.5791" font-family="Times New Roman,serif" font-size="14.00">1958</text>
</g>
<!-- 3408 -->
<g id="node15" class="node"><title>3408</title>
<polygon fill="#7aecf2" stroke="black" points="902.571,-64.9069 854.193,-23.6569 950.948,-23.6569 902.571,-64.9069"/>
<text text-anchor="middle" x="902.571" y="-33.7069" font-family="Times New Roman,serif" font-size="14.00">3408</text>
</g>
<!-- 1958&#45;&#45;3408 -->
<g id="edge22" class="edge"><title>1958&#45;&#45;3408</title>
<path fill="none" stroke="#24db1f" d="M662.255,26.1825C708.651,13.9058 799.845,-10.2247 855.584,-24.9738"/>
</g>
<!-- 3957 -->
<g id="node20" class="node"><title>3957</title>
<polygon fill="#a49423" stroke="black" points="784.41,108.094 747.764,129.594 784.41,151.094 821.057,129.594 784.41,108.094"/>
<text text-anchor="middle" x="784.41" y="133.294" font-family="Times New Roman,serif" font-size="14.00">3957</text>
</g>
<!-- 1958&#45;&#45;3957 -->
<g id="edge21" class="edge"><title>1958&#45;&#45;3957</title>
<path fill="none" stroke="#1ae518" d="M662.33,52.3339C693.231,71.8904 741.032,102.142 766.691,118.38"/>
</g>
<!-- 2239 -->
<g id="node26" class="node"><title>2239</title>
<polygon fill="#876b34" stroke="black" points="483.191,-49.0266 439.191,-49.0266 439.191,-17.0266 483.191,-17.0266 483.191,-49.0266"/>
<text text-anchor="middle" x="461.191" y="-29.3266" font-family="Times New Roman,serif" font-size="14.00">2239</text>
</g>
<!-- 1958&#45;&#45;2239 -->
<g id="edge20" class="edge"><title>1958&#45;&#45;2239</title>
<path fill="none" stroke="#13ec11" d="M603.995,22.5294C569.879,9.25696 514.165,-12.4176 483.382,-24.3934"/>
</g>
<!-- 2011 -->
<g id="node16" class="node"><title>2011</title>
<polygon fill="#565c10" stroke="black" points="417.262,-235.885 382.38,-209.885 417.262,-183.885 452.145,-209.885 417.262,-235.885"/>
<text text-anchor="middle" x="417.262" y="-206.185" font-family="Times New Roman,serif" font-size="14.00">2011</text>
</g>
<!-- 5864 -->
<g id="node22" class="node"><title>5864</title>
<polygon fill="#6e5e28" stroke="black" points="464.372,-405.883 420.372,-405.883 420.372,-366.883 464.372,-366.883 464.372,-405.883"/>
<text text-anchor="middle" x="442.372" y="-382.683" font-family="Times New Roman,serif" font-size="14.00">5864</text>
</g>
<!-- 2011&#45;&#45;5864 -->
<g id="edge24" class="edge"><title>2011&#45;&#45;5864</title>
<path fill="none" stroke="#0cf30c" d="M420.649,-233.689C425.655,-268.88 434.939,-334.134 439.58,-366.754"/>
</g>
<!-- 2011&#45;&#45;2239 -->
<g id="edge23" class="edge"><title>2011&#45;&#45;2239</title>
<path fill="none" stroke="#0bf40b" d="M422.737,-187.844C431.707,-151.73 449.323,-80.8062 457.209,-49.0568"/>
</g>
<!-- 1437 -->
<g id="node30" class="node"><title>1437</title>
<polygon fill="#876c39" stroke="black" points="341.698,63.94 297.698,63.94 297.698,89.94 341.698,89.94 341.698,63.94"/>
<text text-anchor="middle" x="319.698" y="80.64" font-family="Times New Roman,serif" font-size="14.00">1437</text>
</g>
<!-- 512&#45;&#45;1437 -->
<g id="edge25" class="edge"><title>512&#45;&#45;1437</title>
<path fill="none" stroke="#22dd1d" d="M353.288,260.393C345.113,215.744 328.344,124.162 322.106,90.0913"/>
</g>
<!-- 1376&#45;&#45;3077 -->
<g id="edge26" class="edge"><title>1376&#45;&#45;3077</title>
<path fill="none" stroke="#13ec11" d="M-381.308,-171.339C-415.083,-187.638 -478.219,-218.105 -512.106,-234.458"/>
</g>
<!-- 873 -->
<g id="node21" class="node"><title>873</title>
<polygon fill="#b7a268" stroke="black" points="712.2,-301.784 671.2,-301.784 671.2,-260.784 712.2,-260.784 712.2,-301.784"/>
<text text-anchor="middle" x="691.7" y="-277.584" font-family="Times New Roman,serif" font-size="14.00">873</text>
</g>
<!-- 5617 -->
<g id="node25" class="node"><title>5617</title>
<polygon fill="#9f7839" stroke="black" points="835.462,-412.682 791.462,-412.682 791.462,-378.682 835.462,-378.682 835.462,-412.682"/>
<text text-anchor="middle" x="813.462" y="-391.982" font-family="Times New Roman,serif" font-size="14.00">5617</text>
</g>
<!-- 873&#45;&#45;5617 -->
<g id="edge28" class="edge"><title>873&#45;&#45;5617</title>
<path fill="none" stroke="#14eb13" d="M712.356,-300.69C735.56,-322.491 772.877,-357.551 795.099,-378.43"/>
</g>
<!-- 2586 -->
<g id="node33" class="node"><title>2586</title>
<polygon fill="#a28957" stroke="black" points="599.269,-165.406 555.269,-165.406 555.269,-142.406 599.269,-142.406 599.269,-165.406"/>
<text text-anchor="middle" x="577.269" y="-150.206" font-family="Times New Roman,serif" font-size="14.00">2586</text>
</g>
<!-- 873&#45;&#45;2586 -->
<g id="edge27" class="edge"><title>873&#45;&#45;2586</title>
<path fill="none" stroke="#09f609" d="M673.06,-260.535C648.741,-233.464 607.019,-187.021 587.677,-165.491"/>
</g>
<!-- 3794 -->
<g id="node23" class="node"><title>3794</title>
<polygon fill="#3e3e1d" stroke="black" points="263.323,158.466 219.323,158.466 219.323,195.466 263.323,195.466 263.323,158.466"/>
<text text-anchor="middle" x="241.323" y="180.666" font-family="Times New Roman,serif" font-size="14.00" fill="white">3794</text>
</g>
<!-- 3794&#45;&#45;1437 -->
<g id="edge29" class="edge"><title>3794&#45;&#45;1437</title>
<path fill="none" stroke="#15ea13" d="M256.065,158.152C271.585,138.345 295.622,107.667 309.279,90.2372"/>
</g>
<!-- 2502&#45;&#45;3077 -->
<g id="edge30" class="edge"><title>2502&#45;&#45;3077</title>
<path fill="none" stroke="#13ec12" d="M-522.469,-435.399C-525.082,-395.786 -531.372,-300.455 -533.909,-261.999"/>
</g>
<!-- 2239&#45;&#45;1437 -->
<g id="edge32" class="edge"><title>2239&#45;&#45;1437</title>
<path fill="none" stroke="#13ec11" d="M440.313,-16.8007C412.178,5.06575 362.633,43.5717 336.664,63.754"/>
</g>
<!-- 2239&#45;&#45;2586 -->
<g id="edge31" class="edge"><title>2239&#45;&#45;2586</title>
<path fill="none" stroke="#11ee10" d="M476.846,-49.3289C500.609,-74.0751 545.216,-120.526 566.034,-142.206"/>
</g>
<!-- 1720&#45;&#45;1437 -->
<g id="edge33" class="edge"><title>1720&#45;&#45;1437</title>
<path fill="none" stroke="#12ed11" d="M157.091,24.3436C192.728,35.8706 262.097,58.3087 297.602,69.7929"/>
</g>
</g>
</svg>
