<?xml version="1.0" encoding="UTF-8" standalone="no"?>
<!DOCTYPE svg PUBLIC "-//W3C//DTD SVG 1.1//EN"
 "http://www.w3.org/Graphics/SVG/1.1/DTD/svg11.dtd">
<!-- Generated by graphviz version 2.38.0 (20140413.2041)
 -->
<!-- Title: G Pages: 1 -->
<svg width="2487pt" height="2638pt"
 viewBox="0.00 0.00 2486.56 2638.21" xmlns="http://www.w3.org/2000/svg" xmlns:xlink="http://www.w3.org/1999/xlink">
<g id="graph0" class="graph" transform="scale(1 1) rotate(0) translate(1185.86 1299.74)">
<title>G</title>
<polygon fill="white" stroke="none" points="-1185.86,1338.48 -1185.86,-1299.74 1300.7,-1299.74 1300.7,1338.48 -1185.86,1338.48"/>
<!-- 1 -->
<g id="node1" class="node"><title>1</title>
<polygon fill="#392e3a" stroke="black" points="-760.394,167.093 -814.394,248.093 -706.394,248.093 -760.394,167.093"/>
<text text-anchor="middle" x="-760.394" y="224.793" font-family="Times New Roman,serif" font-size="14.00" fill="white">1</text>
</g>
<!-- 3635 -->
<g id="node10" class="node"><title>3635</title>
<polygon fill="#3d4c4b" stroke="black" points="-595.491,299.871 -635.991,340.371 -595.491,380.871 -554.991,340.371 -595.491,299.871"/>
<text text-anchor="middle" x="-595.491" y="344.071" font-family="Times New Roman,serif" font-size="14.00" fill="white">3635</text>
</g>
<!-- 1&#45;&#45;3635 -->
<g id="edge1" class="edge"><title>1&#45;&#45;3635</title>
<path fill="none" stroke="#1ee11b" d="M-722.975,248.159C-691.047,271.254 -646.121,303.749 -619.008,323.36"/>
</g>
<!-- 1027 -->
<g id="node2" class="node"><title>1027</title>
<polygon fill="#586e5d" stroke="black" points="-427.465,367.228 -479.965,419.728 -427.465,472.228 -374.965,419.728 -427.465,367.228"/>
<text text-anchor="middle" x="-427.465" y="423.428" font-family="Times New Roman,serif" font-size="14.00">1027</text>
</g>
<!-- 52 -->
<g id="node4" class="node"><title>52</title>
<ellipse fill="#91af85" stroke="black" cx="-450.093" cy="608.813" rx="49" ry="49"/>
<text text-anchor="middle" x="-450.093" y="612.513" font-family="Times New Roman,serif" font-size="14.00">52</text>
</g>
<!-- 1027&#45;&#45;52 -->
<g id="edge4" class="edge"><title>1027&#45;&#45;52</title>
<path fill="none" stroke="#0df20c" d="M-433.116,466.954C-436.507,495.285 -440.811,531.254 -444.238,559.884"/>
</g>
<!-- 2 -->
<g id="node9" class="node"><title>2</title>
<polygon fill="#3d503e" stroke="black" points="-281.23,267.381 -322.73,308.881 -281.23,350.381 -239.73,308.881 -281.23,267.381"/>
<text text-anchor="middle" x="-281.23" y="312.581" font-family="Times New Roman,serif" font-size="14.00" fill="white">2</text>
</g>
<!-- 1027&#45;&#45;2 -->
<g id="edge2" class="edge"><title>1027&#45;&#45;2</title>
<path fill="none" stroke="#08f708" d="M-397.519,397.029C-370.111,376.253 -330.095,345.92 -304.873,326.802"/>
</g>
<!-- 1027&#45;&#45;3635 -->
<g id="edge3" class="edge"><title>1027&#45;&#45;3635</title>
<path fill="none" stroke="#0af50a" d="M-463.511,402.703C-494.754,387.948 -539.307,366.906 -567.813,353.443"/>
</g>
<!-- 825 -->
<g id="node3" class="node"><title>825</title>
<polygon fill="#356286" stroke="black" points="-1131.36,781.507 -1181.86,832.007 -1131.36,882.507 -1080.86,832.007 -1131.36,781.507"/>
<text text-anchor="middle" x="-1131.36" y="835.707" font-family="Times New Roman,serif" font-size="14.00">825</text>
</g>
<!-- 3718 -->
<g id="node47" class="node"><title>3718</title>
<polygon fill="#557d68" stroke="black" points="-890.859,844.152 -934.859,867.152 -890.859,890.152 -846.859,867.152 -890.859,844.152"/>
<text text-anchor="middle" x="-890.859" y="870.852" font-family="Times New Roman,serif" font-size="14.00">3718</text>
</g>
<!-- 825&#45;&#45;3718 -->
<g id="edge5" class="edge"><title>825&#45;&#45;3718</title>
<path fill="none" stroke="#49b634" d="M-1087.25,838.453C-1040.6,845.27 -967.984,855.882 -925.35,862.112"/>
</g>
<!-- 512 -->
<g id="node17" class="node"><title>512</title>
<ellipse fill="#95b177" stroke="black" cx="-516.73" cy="779.428" rx="32" ry="32"/>
<text text-anchor="middle" x="-516.73" y="783.128" font-family="Times New Roman,serif" font-size="14.00">512</text>
</g>
<!-- 52&#45;&#45;512 -->
<g id="edge6" class="edge"><title>52&#45;&#45;512</title>
<path fill="none" stroke="#0bf40b" d="M-467.95,654.535C-479.709,684.64 -494.768,723.198 -505.023,749.454"/>
</g>
<!-- 1975 -->
<g id="node5" class="node"><title>1975</title>
<ellipse fill="#b0e279" stroke="black" cx="-359.141" cy="1286.98" rx="47.5" ry="47.5"/>
<text text-anchor="middle" x="-359.141" y="1290.68" font-family="Times New Roman,serif" font-size="14.00">1975</text>
</g>
<!-- 4030 -->
<g id="node41" class="node"><title>4030</title>
<ellipse fill="#8cf0ba" stroke="black" cx="-392.27" cy="1128.66" rx="31.2258" ry="16.0303"/>
<text text-anchor="middle" x="-392.27" y="1132.36" font-family="Times New Roman,serif" font-size="14.00">4030</text>
</g>
<!-- 1975&#45;&#45;4030 -->
<g id="edge7" class="edge"><title>1975&#45;&#45;4030</title>
<path fill="none" stroke="#15ea13" d="M-368.901,1240.33C-375.62,1208.23 -384.146,1167.49 -388.818,1145.16"/>
</g>
<!-- 1831 -->
<g id="node6" class="node"><title>1831</title>
<polygon fill="#1d2412" stroke="black" points="-67.8213,-269.686 -113.821,-223.686 -67.8213,-177.686 -21.8213,-223.686 -67.8213,-269.686"/>
<text text-anchor="middle" x="-67.8213" y="-219.986" font-family="Times New Roman,serif" font-size="14.00" fill="white">1831</text>
</g>
<!-- 3602 -->
<g id="node11" class="node"><title>3602</title>
<polygon fill="#1a1f0f" stroke="black" points="39.1694,-221.385 0.169418,-182.385 39.1694,-143.385 78.1694,-182.385 39.1694,-221.385"/>
<text text-anchor="middle" x="39.1694" y="-178.685" font-family="Times New Roman,serif" font-size="14.00" fill="white">3602</text>
</g>
<!-- 1831&#45;&#45;3602 -->
<g id="edge8" class="edge"><title>1831&#45;&#45;3602</title>
<path fill="none" stroke="#0df20d" d="M-34.5552,-210.845C-19.9557,-205.209 -2.99878,-198.663 10.9692,-193.271"/>
</g>
<!-- 6636 -->
<g id="node7" class="node"><title>6636</title>
<polygon fill="#39370f" stroke="black" points="413.724,-416.726 324.724,-416.726 324.724,-327.726 413.724,-327.726 413.724,-416.726"/>
<text text-anchor="middle" x="369.224" y="-368.526" font-family="Times New Roman,serif" font-size="14.00" fill="white">6636</text>
</g>
<!-- 1958 -->
<g id="node14" class="node"><title>1958</title>
<polygon fill="#181b06" stroke="black" points="607.395,-361.414 536.395,-361.414 536.395,-290.414 607.395,-290.414 607.395,-361.414"/>
<text text-anchor="middle" x="571.895" y="-322.214" font-family="Times New Roman,serif" font-size="14.00" fill="white">1958</text>
</g>
<!-- 6636&#45;&#45;1958 -->
<g id="edge10" class="edge"><title>6636&#45;&#45;1958</title>
<path fill="none" stroke="#0ef10d" d="M413.952,-362.005C450.788,-353.588 502.319,-341.812 536.373,-334.031"/>
</g>
<!-- 3077 -->
<g id="node29" class="node"><title>3077</title>
<polygon fill="#d663a0" stroke="black" points="393.536,-258.974 341.81,-224.474 445.262,-224.474 393.536,-258.974"/>
<text text-anchor="middle" x="393.536" y="-232.274" font-family="Times New Roman,serif" font-size="14.00">3077</text>
</g>
<!-- 6636&#45;&#45;3077 -->
<g id="edge15" class="edge"><title>6636&#45;&#45;3077</title>
<path fill="none" stroke="#d82721" d="M377.185,-327.612C381.45,-303.708 386.501,-275.402 389.848,-256.64"/>
</g>
<!-- 2566 -->
<g id="node32" class="node"><title>2566</title>
<polygon fill="#4d4815" stroke="black" points="190.855,-373.208 146.855,-373.208 146.855,-333.208 190.855,-333.208 190.855,-373.208"/>
<text text-anchor="middle" x="168.855" y="-349.508" font-family="Times New Roman,serif" font-size="14.00" fill="white">2566</text>
</g>
<!-- 6636&#45;&#45;2566 -->
<g id="edge9" class="edge"><title>6636&#45;&#45;2566</title>
<path fill="none" stroke="#0cf30b" d="M324.507,-367.982C282.985,-364.04 222.901,-358.337 190.886,-355.299"/>
</g>
<!-- 2586 -->
<g id="node33" class="node"><title>2586</title>
<polygon fill="#455410" stroke="black" points="349.612,-509.041 305.612,-509.041 305.612,-471.041 349.612,-471.041 349.612,-509.041"/>
<text text-anchor="middle" x="327.612" y="-486.341" font-family="Times New Roman,serif" font-size="14.00" fill="white">2586</text>
</g>
<!-- 6636&#45;&#45;2586 -->
<g id="edge13" class="edge"><title>6636&#45;&#45;2586</title>
<path fill="none" stroke="#16e914" d="M353.492,-416.767C346.864,-435.533 339.504,-456.372 334.333,-471.014"/>
</g>
<!-- 5692 -->
<g id="node39" class="node"><title>5692</title>
<ellipse fill="#a3a55b" stroke="black" cx="493.08" cy="-413.113" rx="31.2258" ry="16.0303"/>
<text text-anchor="middle" x="493.08" y="-409.413" font-family="Times New Roman,serif" font-size="14.00">5692</text>
</g>
<!-- 6636&#45;&#45;5692 -->
<g id="edge12" class="edge"><title>6636&#45;&#45;5692</title>
<path fill="none" stroke="#12ed10" d="M413.939,-386.987C431.539,-392.797 451.154,-399.272 466.453,-404.323"/>
</g>
<!-- 2563 -->
<g id="node40" class="node"><title>2563</title>
<polygon fill="#a40f94" stroke="black" points="533.315,-176.871 494.9,-190.833 456.485,-176.871 471.158,-154.28 518.642,-154.28 533.315,-176.871"/>
<text text-anchor="middle" x="494.9" y="-166.927" font-family="Times New Roman,serif" font-size="14.00">2563</text>
</g>
<!-- 6636&#45;&#45;2563 -->
<g id="edge14" class="edge"><title>6636&#45;&#45;2563</title>
<path fill="none" stroke="#d92620" d="M397.116,-327.485C424.74,-283.172 465.576,-217.667 484.532,-187.259"/>
</g>
<!-- 5268 -->
<g id="node50" class="node"><title>5268</title>
<polygon fill="#3b1923" stroke="black" points="440.108,-603.057 377.657,-554.227 502.56,-554.227 440.108,-603.057"/>
<text text-anchor="middle" x="440.108" y="-566.804" font-family="Times New Roman,serif" font-size="14.00" fill="white">5268</text>
</g>
<!-- 6636&#45;&#45;5268 -->
<g id="edge11" class="edge"><title>6636&#45;&#45;5268</title>
<path fill="none" stroke="#ef100f" d="M385.309,-417.218C400.831,-460.636 423.498,-524.042 434.154,-553.849"/>
</g>
<!-- 1839 -->
<g id="node8" class="node"><title>1839</title>
<polygon fill="#617440" stroke="black" points="41.8822,292.753 -1.11782,335.753 41.8822,378.753 84.8822,335.753 41.8822,292.753"/>
<text text-anchor="middle" x="41.8822" y="339.453" font-family="Times New Roman,serif" font-size="14.00">1839</text>
</g>
<!-- 3794 -->
<g id="node23" class="node"><title>3794</title>
<ellipse fill="#9baa6f" stroke="black" cx="169.998" cy="482.641" rx="26.5" ry="26.5"/>
<text text-anchor="middle" x="169.998" y="486.341" font-family="Times New Roman,serif" font-size="14.00">3794</text>
</g>
<!-- 1839&#45;&#45;3794 -->
<g id="edge17" class="edge"><title>1839&#45;&#45;3794</title>
<path fill="none" stroke="#1fe01c" d="M62.1826,359.028C87.0187,387.503 128.665,435.252 152.268,462.314"/>
</g>
<!-- 4195 -->
<g id="node46" class="node"><title>4195</title>
<polygon fill="#4c5b38" stroke="black" points="-107.11,188.893 -151.11,211.893 -107.11,234.893 -63.1104,211.893 -107.11,188.893"/>
<text text-anchor="middle" x="-107.11" y="215.593" font-family="Times New Roman,serif" font-size="14.00">4195</text>
</g>
<!-- 1839&#45;&#45;4195 -->
<g id="edge16" class="edge"><title>1839&#45;&#45;4195</title>
<path fill="none" stroke="#06f906" d="M18.2739,316.127C-11.9222,291.025 -63.4851,248.159 -90.1007,226.033"/>
</g>
<!-- 2&#45;&#45;4195 -->
<g id="edge18" class="edge"><title>2&#45;&#45;4195</title>
<path fill="none" stroke="#0cf30c" d="M-254.406,293.939C-219.777,274.65 -160.212,241.471 -128.475,223.793"/>
</g>
<!-- 131 -->
<g id="node28" class="node"><title>131</title>
<polygon fill="#6f8586" stroke="black" points="-755.242,342.58 -785.621,365.08 -755.242,387.58 -724.863,365.08 -755.242,342.58"/>
<text text-anchor="middle" x="-755.242" y="368.78" font-family="Times New Roman,serif" font-size="14.00">131</text>
</g>
<!-- 3635&#45;&#45;131 -->
<g id="edge19" class="edge"><title>3635&#45;&#45;131</title>
<path fill="none" stroke="#0df20d" d="M-630.945,345.854C-660.912,350.49 -703.109,357.017 -729.813,361.147"/>
</g>
<!-- 1765 -->
<g id="node12" class="node"><title>1765</title>
<polygon fill="#3c452f" stroke="black" points="-164.487,-321.71 -202.487,-283.71 -164.487,-245.71 -126.487,-283.71 -164.487,-321.71"/>
<text text-anchor="middle" x="-164.487" y="-280.01" font-family="Times New Roman,serif" font-size="14.00" fill="white">1765</text>
</g>
<!-- 3602&#45;&#45;1765 -->
<g id="edge20" class="edge"><title>3602&#45;&#45;1765</title>
<path fill="none" stroke="#10ef0f" d="M12.9619,-195.424C-26.3576,-214.987 -100.139,-251.695 -139.02,-271.039"/>
</g>
<!-- 1437 -->
<g id="node30" class="node"><title>1437</title>
<ellipse fill="#8b985f" stroke="black" cx="-35.295" cy="27.7598" rx="26.0874" ry="21"/>
<text text-anchor="middle" x="-35.295" y="31.4598" font-family="Times New Roman,serif" font-size="14.00">1437</text>
</g>
<!-- 3602&#45;&#45;1437 -->
<g id="edge21" class="edge"><title>3602&#45;&#45;1437</title>
<path fill="none" stroke="#12ed10" d="M28.8155,-153.165C13.5098,-109.972 -14.7717,-30.1587 -28.0513,7.31754"/>
</g>
<!-- 3602&#45;&#45;2566 -->
<g id="edge22" class="edge"><title>3602&#45;&#45;2566</title>
<path fill="none" stroke="#17e815" d="M56.1235,-204.717C81.5268,-238.179 129.086,-300.824 153.513,-332.999"/>
</g>
<!-- 74 -->
<g id="node48" class="node"><title>74</title>
<polygon fill="#42554b" stroke="black" points="-344.186,-388.272 -374.186,-365.272 -344.186,-342.272 -314.186,-365.272 -344.186,-388.272"/>
<text text-anchor="middle" x="-344.186" y="-361.572" font-family="Times New Roman,serif" font-size="14.00" fill="white">74</text>
</g>
<!-- 1765&#45;&#45;74 -->
<g id="edge23" class="edge"><title>1765&#45;&#45;74</title>
<path fill="none" stroke="#22dd1e" d="M-191.002,-295.744C-227.711,-312.406 -293.117,-342.092 -325.273,-356.688"/>
</g>
<!-- 2010 -->
<g id="node13" class="node"><title>2010</title>
<ellipse fill="#95bb86" stroke="black" cx="-699.827" cy="814.921" rx="36.5" ry="36.5"/>
<text text-anchor="middle" x="-699.827" y="818.621" font-family="Times New Roman,serif" font-size="14.00">2010</text>
</g>
<!-- 2010&#45;&#45;512 -->
<g id="edge24" class="edge"><title>2010&#45;&#45;512</title>
<path fill="none" stroke="#11ee10" d="M-663.653,807.909C-629.99,801.383 -580.327,791.756 -548.249,785.538"/>
</g>
<!-- 2010&#45;&#45;3718 -->
<g id="edge25" class="edge"><title>2010&#45;&#45;3718</title>
<path fill="none" stroke="#1be418" d="M-735.311,824.623C-771.782,834.595 -827.889,849.935 -861.812,859.21"/>
</g>
<!-- 5864 -->
<g id="node22" class="node"><title>5864</title>
<polygon fill="#263007" stroke="black" points="787.975,-342.524 732.975,-342.524 732.975,-287.524 787.975,-287.524 787.975,-342.524"/>
<text text-anchor="middle" x="760.475" y="-311.324" font-family="Times New Roman,serif" font-size="14.00" fill="white">5864</text>
</g>
<!-- 1958&#45;&#45;5864 -->
<g id="edge26" class="edge"><title>1958&#45;&#45;5864</title>
<path fill="none" stroke="#10ef0f" d="M607.81,-323.84C644.25,-321.736 699.87,-318.524 732.957,-316.613"/>
</g>
<!-- 3408 -->
<g id="node15" class="node"><title>3408</title>
<polygon fill="#0a81a7" stroke="black" points="1138.22,-125.349 1103.72,-149.188 1069.22,-125.349 1082.4,-86.7767 1125.04,-86.7767 1138.22,-125.349"/>
<text text-anchor="middle" x="1103.72" y="-110.988" font-family="Times New Roman,serif" font-size="14.00">3408</text>
</g>
<!-- 3717 -->
<g id="node34" class="node"><title>3717</title>
<polygon fill="#1a0d9a" stroke="black" points="1296.92,-88.1293 1261.98,-100.912 1227.05,-88.1293 1240.39,-67.4457 1283.57,-67.4457 1296.92,-88.1293"/>
<text text-anchor="middle" x="1261.98" y="-78.7125" font-family="Times New Roman,serif" font-size="14.00">3717</text>
</g>
<!-- 3408&#45;&#45;3717 -->
<g id="edge28" class="edge"><title>3408&#45;&#45;3717</title>
<path fill="none" stroke="#3ec12f" d="M1132.75,-108.768C1160.05,-103.199 1200.88,-94.8729 1229.32,-89.0743"/>
</g>
<!-- 4943 -->
<g id="node37" class="node"><title>4943</title>
<polygon fill="#068276" stroke="black" points="989.248,-174.139 952.4,-185.886 915.552,-174.139 929.626,-155.133 975.173,-155.133 989.248,-174.139"/>
<text text-anchor="middle" x="952.4" y="-165.186" font-family="Times New Roman,serif" font-size="14.00">4943</text>
</g>
<!-- 3408&#45;&#45;4943 -->
<g id="edge27" class="edge"><title>3408&#45;&#45;4943</title>
<path fill="none" stroke="#27d821" d="M1070.51,-126.582C1042.85,-136.491 1003.98,-150.41 978.505,-159.536"/>
</g>
<!-- 2011 -->
<g id="node16" class="node"><title>2011</title>
<ellipse fill="#bfc755" stroke="black" cx="394.836" cy="-737.054" rx="33.5" ry="33.5"/>
<text text-anchor="middle" x="394.836" y="-733.354" font-family="Times New Roman,serif" font-size="14.00">2011</text>
</g>
<!-- 2011&#45;&#45;5268 -->
<g id="edge29" class="edge"><title>2011&#45;&#45;5268</title>
<path fill="none" stroke="#e21d1a" d="M403.672,-704.546C412.164,-673.306 424.845,-626.652 432.788,-597.432"/>
</g>
<!-- 1896 -->
<g id="node44" class="node"><title>1896</title>
<ellipse fill="#92cf83" stroke="black" cx="-435.716" cy="943.599" rx="31.2258" ry="16.0303"/>
<text text-anchor="middle" x="-435.716" y="947.299" font-family="Times New Roman,serif" font-size="14.00">1896</text>
</g>
<!-- 512&#45;&#45;1896 -->
<g id="edge30" class="edge"><title>512&#45;&#45;1896</title>
<path fill="none" stroke="#0ef10d" d="M-502.432,808.4C-485.262,843.196 -457.08,900.305 -443.505,927.815"/>
</g>
<!-- 328 -->
<g id="node18" class="node"><title>328</title>
<polygon fill="#4c3258" stroke="black" points="530.617,-851.141 490.93,-804.641 570.303,-804.641 530.617,-851.141"/>
<text text-anchor="middle" x="530.617" y="-816.441" font-family="Times New Roman,serif" font-size="14.00" fill="white">328</text>
</g>
<!-- 328&#45;&#45;5268 -->
<g id="edge31" class="edge"><title>328&#45;&#45;5268</title>
<path fill="none" stroke="#4ab535" d="M524.955,-804.525C509.785,-762.682 468.108,-647.732 449.406,-596.148"/>
</g>
<!-- 1376 -->
<g id="node19" class="node"><title>1376</title>
<polygon fill="#13aa9e" stroke="black" points="968.006,-508.633 908.006,-508.633 908.006,-448.633 968.006,-448.633 968.006,-508.633"/>
<text text-anchor="middle" x="938.006" y="-474.933" font-family="Times New Roman,serif" font-size="14.00">1376</text>
</g>
<!-- 1376&#45;&#45;5864 -->
<g id="edge32" class="edge"><title>1376&#45;&#45;5864</title>
<path fill="none" stroke="#3dc22f" d="M907.89,-450.879C874.354,-419.973 820.602,-370.436 788.106,-340.489"/>
</g>
<!-- 3897 -->
<g id="node49" class="node"><title>3897</title>
<polygon fill="#4e5fb0" stroke="black" points="1109.12,-630.359 1065.12,-607.359 1109.12,-584.359 1153.12,-607.359 1109.12,-630.359"/>
<text text-anchor="middle" x="1109.12" y="-603.659" font-family="Times New Roman,serif" font-size="14.00">3897</text>
</g>
<!-- 1376&#45;&#45;3897 -->
<g id="edge33" class="edge"><title>1376&#45;&#45;3897</title>
<path fill="none" stroke="#3fc030" d="M968.204,-501.351C1003.7,-528.056 1061.49,-571.525 1090.81,-593.582"/>
</g>
<!-- 3957 -->
<g id="node20" class="node"><title>3957</title>
<polygon fill="#7c3f51" stroke="black" points="57.238,-545.728 9.37865,-502.228 105.097,-502.228 57.238,-545.728"/>
<text text-anchor="middle" x="57.238" y="-513.028" font-family="Times New Roman,serif" font-size="14.00">3957</text>
</g>
<!-- 2239 -->
<g id="node26" class="node"><title>2239</title>
<polygon fill="#674556" stroke="black" points="-80.0415,-704.646 -130.301,-668.646 -29.7819,-668.646 -80.0415,-704.646"/>
<text text-anchor="middle" x="-80.0415" y="-676.946" font-family="Times New Roman,serif" font-size="14.00">2239</text>
</g>
<!-- 3957&#45;&#45;2239 -->
<g id="edge35" class="edge"><title>3957&#45;&#45;2239</title>
<path fill="none" stroke="#1be418" d="M43.3195,-533.347C15.6445,-566.393 -45.709,-639.652 -69.927,-668.569"/>
</g>
<!-- 1321 -->
<g id="node31" class="node"><title>1321</title>
<polygon fill="#352832" stroke="black" points="77.8633,-718.056 24.5611,-683.556 131.165,-683.556 77.8633,-718.056"/>
<text text-anchor="middle" x="77.8633" y="-691.356" font-family="Times New Roman,serif" font-size="14.00" fill="white">1321</text>
</g>
<!-- 3957&#45;&#45;1321 -->
<g id="edge36" class="edge"><title>3957&#45;&#45;1321</title>
<path fill="none" stroke="#2bd424" d="M60.2814,-543.041C64.8308,-582.376 73.2206,-654.915 76.4995,-683.264"/>
</g>
<!-- 3957&#45;&#45;2566 -->
<g id="edge34" class="edge"><title>3957&#45;&#45;2566</title>
<path fill="none" stroke="#f40b0a" d="M67.1433,-502.217C87.1507,-472.905 132.413,-406.596 155.202,-373.209"/>
</g>
<!-- 873 -->
<g id="node21" class="node"><title>873</title>
<polygon fill="#12060c" stroke="black" points="603.248,-682.658 562.871,-639.908 643.625,-639.908 603.248,-682.658"/>
<text text-anchor="middle" x="603.248" y="-650.458" font-family="Times New Roman,serif" font-size="14.00" fill="white">873</text>
</g>
<!-- 873&#45;&#45;5268 -->
<g id="edge37" class="edge"><title>873&#45;&#45;5268</title>
<path fill="none" stroke="#24db1f" d="M575.203,-639.777C544.32,-623.941 495.109,-598.707 465.379,-583.462"/>
</g>
<!-- 5864&#45;&#45;4943 -->
<g id="edge38" class="edge"><title>5864&#45;&#45;4943</title>
<path fill="none" stroke="#26d920" d="M788.383,-293.775C829.137,-262.743 903.63,-206.021 936.31,-181.137"/>
</g>
<!-- 2502 -->
<g id="node24" class="node"><title>2502</title>
<polygon fill="#3c1430" stroke="black" points="-166.466,-1106.16 -215.563,-1067.91 -117.37,-1067.91 -166.466,-1106.16"/>
<text text-anchor="middle" x="-166.466" y="-1076.96" font-family="Times New Roman,serif" font-size="14.00" fill="white">2502</text>
</g>
<!-- 1518 -->
<g id="node36" class="node"><title>1518</title>
<polygon fill="#5c4555" stroke="black" points="-171.52,-891.082 -229.768,-856.582 -113.273,-856.582 -171.52,-891.082"/>
<text text-anchor="middle" x="-171.52" y="-864.382" font-family="Times New Roman,serif" font-size="14.00">1518</text>
</g>
<!-- 2502&#45;&#45;1518 -->
<g id="edge39" class="edge"><title>2502&#45;&#45;1518</title>
<path fill="none" stroke="#25da20" d="M-166.775,-1067.68C-167.609,-1032.61 -169.915,-935.615 -170.975,-891.034"/>
</g>
<!-- 3662 -->
<g id="node42" class="node"><title>3662</title>
<polygon fill="#7871c8" stroke="black" points="-190.261,-1270.8 -190.261,-1285.47 -210.091,-1295.84 -238.136,-1295.84 -257.967,-1285.47 -257.967,-1270.8 -238.136,-1260.43 -210.091,-1260.43 -190.261,-1270.8"/>
<text text-anchor="middle" x="-224.114" y="-1274.43" font-family="Times New Roman,serif" font-size="14.00">3662</text>
</g>
<!-- 2502&#45;&#45;3662 -->
<g id="edge40" class="edge"><title>2502&#45;&#45;3662</title>
<path fill="none" stroke="#be4130" d="M-172.636,-1101.79C-184.051,-1140.89 -208.272,-1223.86 -218.914,-1260.32"/>
</g>
<!-- 5617 -->
<g id="node25" class="node"><title>5617</title>
<ellipse fill="#89dbee" stroke="black" cx="-528.084" cy="1263.63" rx="25" ry="25"/>
<text text-anchor="middle" x="-528.084" y="1267.33" font-family="Times New Roman,serif" font-size="14.00">5617</text>
</g>
<!-- 5617&#45;&#45;4030 -->
<g id="edge41" class="edge"><title>5617&#45;&#45;4030</title>
<path fill="none" stroke="#1be418" d="M-510.329,1245.98C-483.293,1219.12 -432.296,1168.44 -407.112,1143.41"/>
</g>
<!-- 2239&#45;&#45;1518 -->
<g id="edge42" class="edge"><title>2239&#45;&#45;1518</title>
<path fill="none" stroke="#1de21a" d="M-88.8129,-698.618C-107.416,-736.736 -150.389,-824.785 -165.85,-856.463"/>
</g>
<!-- 1720 -->
<g id="node27" class="node"><title>1720</title>
<ellipse fill="#4d5c34" stroke="black" cx="105.64" cy="104.434" rx="25.4561" ry="23.5"/>
<text text-anchor="middle" x="105.64" y="108.134" font-family="Times New Roman,serif" font-size="14.00">1720</text>
</g>
<!-- 1720&#45;&#45;1437 -->
<g id="edge43" class="edge"><title>1720&#45;&#45;1437</title>
<path fill="none" stroke="#14eb12" d="M83.6186,92.4539C57.1417,78.0493 12.9792,54.023 -13.4286,39.6561"/>
</g>
<!-- 1808 -->
<g id="node35" class="node"><title>1808</title>
<ellipse fill="#849b5e" stroke="black" cx="-183.069" cy="-9.5896" rx="28.6953" ry="18"/>
<text text-anchor="middle" x="-183.069" y="-5.8896" font-family="Times New Roman,serif" font-size="14.00">1808</text>
</g>
<!-- 1437&#45;&#45;1808 -->
<g id="edge44" class="edge"><title>1437&#45;&#45;1808</title>
<path fill="none" stroke="#0cf30b" d="M-60.3628,21.424C-87.0426,14.6808 -129.094,4.05249 -156.378,-2.84349"/>
</g>
<!-- 1437&#45;&#45;4195 -->
<g id="edge45" class="edge"><title>1437&#45;&#45;4195</title>
<path fill="none" stroke="#10ef0f" d="M-43.1172,47.8158C-57.0406,83.515 -85.9422,157.618 -99.622,192.693"/>
</g>
<!-- 109 -->
<g id="node51" class="node"><title>109</title>
<polygon fill="#d593b8" stroke="black" points="-355.55,-957.811 -407.702,-908.98 -303.397,-908.98 -355.55,-957.811"/>
<text text-anchor="middle" x="-355.55" y="-921.557" font-family="Times New Roman,serif" font-size="14.00">109</text>
</g>
<!-- 1518&#45;&#45;109 -->
<g id="edge46" class="edge"><title>1518&#45;&#45;109</title>
<path fill="none" stroke="#2ad523" d="M-197.109,-876.032C-224.466,-884.531 -268.597,-898.242 -303.345,-909.038"/>
</g>
<!-- 2416 -->
<g id="node38" class="node"><title>2416</title>
<polygon fill="#23222b" stroke="black" points="-1016.34,1031.82 -1059.62,1048.32 -1016.34,1064.82 -973.07,1048.32 -1016.34,1031.82"/>
<text text-anchor="middle" x="-1016.34" y="1052.02" font-family="Times New Roman,serif" font-size="14.00" fill="white">2416</text>
</g>
<!-- 2416&#45;&#45;3718 -->
<g id="edge47" class="edge"><title>2416&#45;&#45;3718</title>
<path fill="none" stroke="#38c72c" d="M-1007.12,1034.99C-984.703,1002.64 -927.415,919.928 -902.607,884.112"/>
</g>
<!-- 4030&#45;&#45;1896 -->
<g id="edge48" class="edge"><title>4030&#45;&#45;1896</title>
<path fill="none" stroke="#19e616" d="M-396.125,1112.24C-404.37,1077.12 -423.632,995.072 -431.869,959.986"/>
</g>
<!-- 5567 -->
<g id="node45" class="node"><title>5567</title>
<polygon fill="#dd56f2" stroke="black" points="-158.042,1297.69 -158.042,1283.02 -177.873,1272.65 -205.918,1272.65 -225.749,1283.02 -225.749,1297.69 -205.918,1308.06 -177.873,1308.06 -158.042,1297.69"/>
<text text-anchor="middle" x="-191.896" y="1294.05" font-family="Times New Roman,serif" font-size="14.00">5567</text>
</g>
<!-- 4030&#45;&#45;5567 -->
<g id="edge49" class="edge"><title>4030&#45;&#45;5567</title>
<path fill="none" stroke="#1fe01b" d="M-375.186,1142.45C-337.992,1172.46 -249.906,1243.54 -210.969,1274.96"/>
</g>
<!-- 1697 -->
<g id="node43" class="node"><title>1697</title>
<ellipse fill="#7f874b" stroke="black" cx="-73.6001" cy="337.67" rx="31.2258" ry="16.0303"/>
<text text-anchor="middle" x="-73.6001" y="341.37" font-family="Times New Roman,serif" font-size="14.00">1697</text>
</g>
<!-- 1697&#45;&#45;4195 -->
<g id="edge50" class="edge"><title>1697&#45;&#45;4195</title>
<path fill="none" stroke="#0cf30c" d="M-77.9124,321.485C-83.9933,298.661 -95.0834,257.035 -101.707,232.175"/>
</g>
</g>
</svg>
