<?xml version="1.0" encoding="UTF-8" standalone="no"?>
<!DOCTYPE svg PUBLIC "-//W3C//DTD SVG 1.1//EN"
 "http://www.w3.org/Graphics/SVG/1.1/DTD/svg11.dtd">
<!-- Generated by graphviz version 2.38.0 (20140413.2041)
 -->
<!-- Title: G Pages: 1 -->
<svg width="2533pt" height="1868pt"
 viewBox="0.00 0.00 2533.48 1867.98" xmlns="http://www.w3.org/2000/svg" xmlns:xlink="http://www.w3.org/1999/xlink">
<g id="graph0" class="graph" transform="scale(1 1) rotate(0) translate(1176.63 914.74)">
<title>G</title>
<polygon fill="white" stroke="none" points="-1176.63,953.242 -1176.63,-914.74 1356.85,-914.74 1356.85,953.242 -1176.63,953.242"/>
<!-- 1 -->
<g id="node1" class="node"><title>1</title>
<ellipse fill="#494652" stroke="black" cx="-748.253" cy="436.664" rx="54" ry="54"/>
<text text-anchor="middle" x="-748.253" y="440.364" font-family="Times New Roman,serif" font-size="14.00" fill="white">1</text>
</g>
<!-- 3635 -->
<g id="node10" class="node"><title>3635</title>
<polygon fill="#223228" stroke="black" points="-557.092,257.552 -557.092,224.001 -580.817,200.276 -614.368,200.276 -638.092,224.001 -638.092,257.552 -614.368,281.276 -580.817,281.276 -557.092,257.552"/>
<text text-anchor="middle" x="-597.592" y="244.476" font-family="Times New Roman,serif" font-size="14.00" fill="white">3635</text>
</g>
<!-- 1&#45;&#45;3635 -->
<g id="edge1" class="edge"><title>1&#45;&#45;3635</title>
<path fill="none" stroke="#1de21a" d="M-715.19,393.676C-687.298,357.411 -647.977,306.285 -622.633,273.334"/>
</g>
<!-- 1321 -->
<g id="node31" class="node"><title>1321</title>
<ellipse fill="#292a31" stroke="black" cx="-690.072" cy="624.661" rx="26.6511" ry="20.5"/>
<text text-anchor="middle" x="-690.072" y="628.361" font-family="Times New Roman,serif" font-size="14.00" fill="white">1321</text>
</g>
<!-- 1&#45;&#45;1321 -->
<g id="edge3" class="edge"><title>1&#45;&#45;1321</title>
<path fill="none" stroke="#29d622" d="M-732.201,488.533C-720.361,526.79 -704.889,576.785 -696.375,604.297"/>
</g>
<!-- 1518 -->
<g id="node36" class="node"><title>1518</title>
<ellipse fill="#47404c" stroke="black" cx="-903.919" cy="527.856" rx="29.3748" ry="17.5"/>
<text text-anchor="middle" x="-903.919" y="531.556" font-family="Times New Roman,serif" font-size="14.00" fill="white">1518</text>
</g>
<!-- 1&#45;&#45;1518 -->
<g id="edge2" class="edge"><title>1&#45;&#45;1518</title>
<path fill="none" stroke="#22dd1d" d="M-794.958,464.025C-824.153,481.128 -860.344,502.329 -882.786,515.476"/>
</g>
<!-- 1027 -->
<g id="node2" class="node"><title>1027</title>
<polygon fill="#536b51" stroke="black" points="-449.682,82.9681 -449.682,39.4757 -480.436,8.72188 -523.928,8.72188 -554.682,39.4757 -554.682,82.9681 -523.928,113.722 -480.436,113.722 -449.682,82.9681"/>
<text text-anchor="middle" x="-502.182" y="64.9219" font-family="Times New Roman,serif" font-size="14.00">1027</text>
</g>
<!-- 52 -->
<g id="node4" class="node"><title>52</title>
<polygon fill="#94c484" stroke="black" points="-586.317,-133.857 -684.317,-133.857 -684.317,-35.8569 -586.317,-35.8569 -586.317,-133.857"/>
<text text-anchor="middle" x="-635.317" y="-81.1569" font-family="Times New Roman,serif" font-size="14.00">52</text>
</g>
<!-- 1027&#45;&#45;52 -->
<g id="edge6" class="edge"><title>1027&#45;&#45;52</title>
<path fill="none" stroke="#0cf30c" d="M-537.86,22.0754C-554.035,4.32786 -573.337,-16.8502 -590.479,-35.659"/>
</g>
<!-- 2 -->
<g id="node9" class="node"><title>2</title>
<polygon fill="#3d513b" stroke="black" points="-278.016,54.3242 -278.016,19.9445 -302.326,-4.36564 -336.706,-4.36564 -361.016,19.9445 -361.016,54.3242 -336.706,78.6344 -302.326,78.6344 -278.016,54.3242"/>
<text text-anchor="middle" x="-319.516" y="40.8344" font-family="Times New Roman,serif" font-size="14.00" fill="white">2</text>
</g>
<!-- 1027&#45;&#45;2 -->
<g id="edge4" class="edge"><title>1027&#45;&#45;2</title>
<path fill="none" stroke="#07f807" d="M-449.347,54.2548C-421.32,50.5588 -387.371,46.0822 -361.219,42.6336"/>
</g>
<!-- 1027&#45;&#45;3635 -->
<g id="edge5" class="edge"><title>1027&#45;&#45;3635</title>
<path fill="none" stroke="#09f608" d="M-528.001,109.812C-543.62,139.204 -563.233,176.116 -577.654,203.255"/>
</g>
<!-- 825 -->
<g id="node3" class="node"><title>825</title>
<polygon fill="#3546a4" stroke="black" points="1352.85,544.565 1251.85,544.565 1251.85,645.565 1352.85,645.565 1352.85,544.565"/>
<text text-anchor="middle" x="1302.35" y="598.765" font-family="Times New Roman,serif" font-size="14.00">825</text>
</g>
<!-- 3897 -->
<g id="node49" class="node"><title>3897</title>
<polygon fill="#8f46ca" stroke="black" points="1119.47,416.602 1057.02,465.433 1181.92,465.433 1119.47,416.602"/>
<text text-anchor="middle" x="1119.47" y="452.856" font-family="Times New Roman,serif" font-size="14.00">3897</text>
</g>
<!-- 825&#45;&#45;3897 -->
<g id="edge7" class="edge"><title>825&#45;&#45;3897</title>
<path fill="none" stroke="#4db236" d="M1251.41,554.421C1214.63,525.077 1166.9,486.992 1140.09,465.605"/>
</g>
<!-- 2010 -->
<g id="node13" class="node"><title>2010</title>
<polygon fill="#87bc7a" stroke="black" points="-769.796,-73.0133 -842.796,-73.0133 -842.796,-0.0133405 -769.796,-0.0133405 -769.796,-73.0133"/>
<text text-anchor="middle" x="-806.296" y="-32.8133" font-family="Times New Roman,serif" font-size="14.00">2010</text>
</g>
<!-- 52&#45;&#45;2010 -->
<g id="edge10" class="edge"><title>52&#45;&#45;2010</title>
<path fill="none" stroke="#0ff00e" d="M-684.772,-70.874C-711.894,-63.2053 -744.939,-53.8619 -769.72,-46.8551"/>
</g>
<!-- 512 -->
<g id="node17" class="node"><title>512</title>
<polygon fill="#7ea162" stroke="black" points="-695.67,-194.086 -759.67,-194.086 -759.67,-130.086 -695.67,-130.086 -695.67,-194.086"/>
<text text-anchor="middle" x="-727.67" y="-158.386" font-family="Times New Roman,serif" font-size="14.00">512</text>
</g>
<!-- 52&#45;&#45;512 -->
<g id="edge8" class="edge"><title>52&#45;&#45;512</title>
<path fill="none" stroke="#0af50a" d="M-684.468,-125.959C-688.259,-129.129 -692.023,-132.276 -695.657,-135.315"/>
</g>
<!-- 1896 -->
<g id="node44" class="node"><title>1896</title>
<polygon fill="#75bc68" stroke="black" points="-682.138,-298.079 -726.138,-298.079 -726.138,-271.079 -682.138,-271.079 -682.138,-298.079"/>
<text text-anchor="middle" x="-704.138" y="-280.879" font-family="Times New Roman,serif" font-size="14.00">1896</text>
</g>
<!-- 52&#45;&#45;1896 -->
<g id="edge9" class="edge"><title>52&#45;&#45;1896</title>
<path fill="none" stroke="#0df20d" d="M-652.241,-133.97C-667.763,-179.015 -689.749,-242.823 -699.346,-270.673"/>
</g>
<!-- 1975 -->
<g id="node5" class="node"><title>1975</title>
<polygon fill="#70e25b" stroke="black" points="-902.749,-593.872 -997.749,-593.872 -997.749,-498.872 -902.749,-498.872 -902.749,-593.872"/>
<text text-anchor="middle" x="-950.249" y="-542.672" font-family="Times New Roman,serif" font-size="14.00">1975</text>
</g>
<!-- 2011 -->
<g id="node16" class="node"><title>2011</title>
<polygon fill="#94c145" stroke="black" points="-1034.55,-689.397 -1101.55,-689.397 -1101.55,-622.397 -1034.55,-622.397 -1034.55,-689.397"/>
<text text-anchor="middle" x="-1068.05" y="-652.197" font-family="Times New Roman,serif" font-size="14.00">2011</text>
</g>
<!-- 1975&#45;&#45;2011 -->
<g id="edge12" class="edge"><title>1975&#45;&#45;2011</title>
<path fill="none" stroke="#1de21a" d="M-997.825,-590.604C-1010.09,-602.003 -1023.03,-614.035 -1034.41,-624.621"/>
</g>
<!-- 4030 -->
<g id="node41" class="node"><title>4030</title>
<polygon fill="#6ed39d" stroke="black" points="-805.792,-439.429 -849.792,-439.429 -849.792,-409.429 -805.792,-409.429 -805.792,-439.429"/>
<text text-anchor="middle" x="-827.792" y="-420.729" font-family="Times New Roman,serif" font-size="14.00">4030</text>
</g>
<!-- 1975&#45;&#45;4030 -->
<g id="edge11" class="edge"><title>1975&#45;&#45;4030</title>
<path fill="none" stroke="#11ee10" d="M-902.553,-498.876C-881.332,-477.744 -857.828,-454.339 -842.942,-439.516"/>
</g>
<!-- 1831 -->
<g id="node6" class="node"><title>1831</title>
<polygon fill="#2e3b20" stroke="black" points="127.158,-55.5594 127.158,-93.6671 100.212,-120.613 62.1043,-120.613 35.1581,-93.6671 35.1581,-55.5594 62.1043,-28.6133 100.212,-28.6133 127.158,-55.5594"/>
<text text-anchor="middle" x="81.1581" y="-70.9133" font-family="Times New Roman,serif" font-size="14.00" fill="white">1831</text>
</g>
<!-- 3602 -->
<g id="node11" class="node"><title>3602</title>
<polygon fill="#232e1a" stroke="black" points="133.835,68.4374 133.835,36.1288 110.989,13.2831 78.6807,13.2831 55.835,36.1288 55.835,68.4374 78.6807,91.2831 110.989,91.2831 133.835,68.4374"/>
<text text-anchor="middle" x="94.835" y="55.9831" font-family="Times New Roman,serif" font-size="14.00" fill="white">3602</text>
</g>
<!-- 1831&#45;&#45;3602 -->
<g id="edge13" class="edge"><title>1831&#45;&#45;3602</title>
<path fill="none" stroke="#0af509" d="M86.1345,-28.4418C87.601,-14.8357 89.1911,-0.0822856 90.6059,13.0447"/>
</g>
<!-- 6636 -->
<g id="node7" class="node"><title>6636</title>
<polygon fill="#4b541b" stroke="black" points="508.064,-141.517 463.564,-172.266 419.064,-141.517 436.062,-91.7648 491.067,-91.7648 508.064,-141.517"/>
<text text-anchor="middle" x="463.564" y="-124.066" font-family="Times New Roman,serif" font-size="14.00" fill="white">6636</text>
</g>
<!-- 1958 -->
<g id="node14" class="node"><title>1958</title>
<polygon fill="#2b3710" stroke="black" points="535.059,-346.047 499.559,-370.577 464.059,-346.047 477.618,-306.357 521.499,-306.357 535.059,-346.047"/>
<text text-anchor="middle" x="499.559" y="-331.377" font-family="Times New Roman,serif" font-size="14.00" fill="white">1958</text>
</g>
<!-- 6636&#45;&#45;1958 -->
<g id="edge15" class="edge"><title>6636&#45;&#45;1958</title>
<path fill="none" stroke="#0bf40a" d="M470.504,-167.738C477.552,-208.331 488.294,-270.198 494.551,-306.238"/>
</g>
<!-- 3077 -->
<g id="node29" class="node"><title>3077</title>
<polygon fill="#97517d" stroke="black" points="652.288,-0.449047 600.562,34.051 704.014,34.051 652.288,-0.449047"/>
<text text-anchor="middle" x="652.288" y="26.251" font-family="Times New Roman,serif" font-size="14.00">3077</text>
</g>
<!-- 6636&#45;&#45;3077 -->
<g id="edge19" class="edge"><title>6636&#45;&#45;3077</title>
<path fill="none" stroke="#d62922" d="M495.152,-102.606C535.866,-70.1784 605.113,-15.0237 636.266,9.78973"/>
</g>
<!-- 2566 -->
<g id="node32" class="node"><title>2566</title>
<polygon fill="#59621e" stroke="black" points="321.334,-43.9037 287.857,-57.7233 254.38,-43.9037 267.167,-21.543 308.547,-21.543 321.334,-43.9037"/>
<text text-anchor="middle" x="287.857" y="-34.0233" font-family="Times New Roman,serif" font-size="14.00">2566</text>
</g>
<!-- 6636&#45;&#45;2566 -->
<g id="edge14" class="edge"><title>6636&#45;&#45;2566</title>
<path fill="none" stroke="#0af509" d="M429.686,-110.405C394.284,-92.2629 339.791,-64.3373 309.7,-48.9169"/>
</g>
<!-- 2586 -->
<g id="node33" class="node"><title>2586</title>
<polygon fill="#426516" stroke="black" points="446.352,-217.204 412.028,-230.332 377.705,-217.204 390.815,-195.961 433.242,-195.961 446.352,-217.204"/>
<text text-anchor="middle" x="412.028" y="-207.632" font-family="Times New Roman,serif" font-size="14.00">2586</text>
</g>
<!-- 6636&#45;&#45;2586 -->
<g id="edge17" class="edge"><title>6636&#45;&#45;2586</title>
<path fill="none" stroke="#12ed11" d="M444.081,-159.359C436.442,-171.746 428.018,-185.405 421.724,-195.611"/>
</g>
<!-- 5692 -->
<g id="node39" class="node"><title>5692</title>
<polygon fill="#9bb254" stroke="black" points="396.609,-301.244 352.609,-301.244 352.609,-269.244 396.609,-269.244 396.609,-301.244"/>
<text text-anchor="middle" x="374.609" y="-281.544" font-family="Times New Roman,serif" font-size="14.00">5692</text>
</g>
<!-- 6636&#45;&#45;5692 -->
<g id="edge16" class="edge"><title>6636&#45;&#45;5692</title>
<path fill="none" stroke="#0ef10d" d="M445.348,-160.014C426.643,-193.129 398.282,-243.335 383.809,-268.957"/>
</g>
<!-- 2563 -->
<g id="node40" class="node"><title>2563</title>
<polygon fill="#440737" stroke="black" points="542.037,29.1051 498.037,52.1051 542.037,75.1051 586.037,52.1051 542.037,29.1051"/>
<text text-anchor="middle" x="542.037" y="55.8051" font-family="Times New Roman,serif" font-size="14.00" fill="white">2563</text>
</g>
<!-- 6636&#45;&#45;2563 -->
<g id="edge20" class="edge"><title>6636&#45;&#45;2563</title>
<path fill="none" stroke="#d62922" d="M479.445,-91.3665C495.836,-53.7951 520.778,3.37514 533.669,32.9249"/>
</g>
<!-- 5268 -->
<g id="node50" class="node"><title>5268</title>
<ellipse fill="#321e26" stroke="black" cx="637.384" cy="-185.985" rx="31.2258" ry="16.0303"/>
<text text-anchor="middle" x="637.384" y="-182.285" font-family="Times New Roman,serif" font-size="14.00" fill="white">5268</text>
</g>
<!-- 6636&#45;&#45;5268 -->
<g id="edge18" class="edge"><title>6636&#45;&#45;5268</title>
<path fill="none" stroke="#e51a18" d="M506.978,-142.307C539.658,-153.253 583.394,-167.902 610.982,-177.142"/>
</g>
<!-- 1839 -->
<g id="node8" class="node"><title>1839</title>
<polygon fill="#658145" stroke="black" points="-67.6948,212.008 -67.6948,176.386 -92.8836,151.197 -128.506,151.197 -153.695,176.386 -153.695,212.008 -128.506,237.197 -92.8836,237.197 -67.6948,212.008"/>
<text text-anchor="middle" x="-110.695" y="197.897" font-family="Times New Roman,serif" font-size="14.00">1839</text>
</g>
<!-- 3794 -->
<g id="node23" class="node"><title>3794</title>
<polygon fill="#91bd6f" stroke="black" points="-98.004,356.023 -151.004,356.023 -151.004,409.023 -98.004,409.023 -98.004,356.023"/>
<text text-anchor="middle" x="-124.504" y="386.223" font-family="Times New Roman,serif" font-size="14.00">3794</text>
</g>
<!-- 1839&#45;&#45;3794 -->
<g id="edge22" class="edge"><title>1839&#45;&#45;3794</title>
<path fill="none" stroke="#1fe01b" d="M-113.863,237.403C-116.538,273.89 -120.285,324.986 -122.545,355.803"/>
</g>
<!-- 4195 -->
<g id="node46" class="node"><title>4195</title>
<polygon fill="#5c7143" stroke="black" points="-78.6497,23.84 -78.6497,9.1706 -98.4805,-1.20221 -126.525,-1.20221 -146.356,9.1706 -146.356,23.84 -126.525,34.2128 -98.4805,34.2128 -78.6497,23.84"/>
<text text-anchor="middle" x="-112.503" y="20.2053" font-family="Times New Roman,serif" font-size="14.00">4195</text>
</g>
<!-- 1839&#45;&#45;4195 -->
<g id="edge21" class="edge"><title>1839&#45;&#45;4195</title>
<path fill="none" stroke="#06f906" d="M-111.132,151.183C-111.513,113.796 -112.045,61.4981 -112.321,34.3874"/>
</g>
<!-- 2&#45;&#45;4195 -->
<g id="edge23" class="edge"><title>2&#45;&#45;4195</title>
<path fill="none" stroke="#0af50a" d="M-277.624,32.9598C-238.991,29.1099 -182.352,23.4658 -146.466,19.8897"/>
</g>
<!-- 131 -->
<g id="node28" class="node"><title>131</title>
<polygon fill="#6d887a" stroke="black" points="-531.353,412.563 -531.353,393.924 -544.882,380.744 -564.015,380.744 -577.545,393.924 -577.545,412.563 -564.015,425.744 -544.882,425.744 -531.353,412.563"/>
<text text-anchor="middle" x="-554.449" y="406.944" font-family="Times New Roman,serif" font-size="14.00">131</text>
</g>
<!-- 3635&#45;&#45;131 -->
<g id="edge24" class="edge"><title>3635&#45;&#45;131</title>
<path fill="none" stroke="#0cf30b" d="M-586.817,281.355C-578.48,312.746 -567.246,355.052 -560.442,380.673"/>
</g>
<!-- 1765 -->
<g id="node12" class="node"><title>1765</title>
<polygon fill="#7f9963" stroke="black" points="184.856,226.277 108.856,226.277 108.856,302.277 184.856,302.277 184.856,226.277"/>
<text text-anchor="middle" x="146.856" y="267.977" font-family="Times New Roman,serif" font-size="14.00">1765</text>
</g>
<!-- 3602&#45;&#45;1765 -->
<g id="edge25" class="edge"><title>3602&#45;&#45;1765</title>
<path fill="none" stroke="#0ff00e" d="M104.498,91.6608C113.93,130.098 128.185,188.189 137.508,226.181"/>
</g>
<!-- 3602&#45;&#45;2566 -->
<g id="edge27" class="edge"><title>3602&#45;&#45;2566</title>
<path fill="none" stroke="#13ec12" d="M132.51,34.7153C171.458,16.5538 231.079,-11.2475 263.981,-26.5898"/>
</g>
<!-- 3602&#45;&#45;4195 -->
<g id="edge26" class="edge"><title>3602&#45;&#45;4195</title>
<path fill="none" stroke="#0ff00e" d="M55.3483,45.4694C16.5751,38.7787 -41.9458,28.6805 -78.6513,22.3466"/>
</g>
<!-- 74 -->
<g id="node48" class="node"><title>74</title>
<polygon fill="#6a8b71" stroke="black" points="218.089,468.883 218.089,454.213 204.662,443.841 185.673,443.841 172.245,454.213 172.245,468.883 185.673,479.256 204.662,479.256 218.089,468.883"/>
<text text-anchor="middle" x="195.167" y="465.248" font-family="Times New Roman,serif" font-size="14.00">74</text>
</g>
<!-- 1765&#45;&#45;74 -->
<g id="edge28" class="edge"><title>1765&#45;&#45;74</title>
<path fill="none" stroke="#1fe01b" d="M156.171,302.313C166.59,344.859 183.024,411.964 190.805,443.737"/>
</g>
<!-- 3718 -->
<g id="node47" class="node"><title>3718</title>
<polygon fill="#609371" stroke="black" points="-953.696,-55.0478 -953.696,-69.7171 -973.527,-80.0899 -1001.57,-80.0899 -1021.4,-69.7171 -1021.4,-55.0478 -1001.57,-44.675 -973.527,-44.675 -953.696,-55.0478"/>
<text text-anchor="middle" x="-987.55" y="-58.6825" font-family="Times New Roman,serif" font-size="14.00">3718</text>
</g>
<!-- 2010&#45;&#45;3718 -->
<g id="edge29" class="edge"><title>2010&#45;&#45;3718</title>
<path fill="none" stroke="#18e716" d="M-842.975,-41.7483C-875.353,-46.3694 -922.175,-53.0519 -953.68,-57.5484"/>
</g>
<!-- 5864 -->
<g id="node22" class="node"><title>5864</title>
<polygon fill="#2b3f0c" stroke="black" points="560.866,-528.353 530.992,-547.355 501.118,-528.353 512.529,-497.607 549.455,-497.607 560.866,-528.353"/>
<text text-anchor="middle" x="530.992" y="-516.155" font-family="Times New Roman,serif" font-size="14.00" fill="white">5864</text>
</g>
<!-- 1958&#45;&#45;5864 -->
<g id="edge30" class="edge"><title>1958&#45;&#45;5864</title>
<path fill="none" stroke="#0ef10d" d="M505.034,-367.263C511.384,-404.59 521.684,-465.139 527.207,-497.607"/>
</g>
<!-- 3408 -->
<g id="node15" class="node"><title>3408</title>
<polygon fill="#042051" stroke="black" points="671.293,-910.74 636.793,-876.24 671.293,-841.74 705.793,-876.24 671.293,-910.74"/>
<text text-anchor="middle" x="671.293" y="-872.54" font-family="Times New Roman,serif" font-size="14.00" fill="white">3408</text>
</g>
<!-- 4943 -->
<g id="node37" class="node"><title>4943</title>
<polygon fill="#033038" stroke="black" points="687.422,-727.691 644.929,-710.691 687.422,-693.691 729.915,-710.691 687.422,-727.691"/>
<text text-anchor="middle" x="687.422" y="-706.991" font-family="Times New Roman,serif" font-size="14.00" fill="white">4943</text>
</g>
<!-- 3408&#45;&#45;4943 -->
<g id="edge31" class="edge"><title>3408&#45;&#45;4943</title>
<path fill="none" stroke="#2cd324" d="M674.365,-844.712C677.765,-809.813 683.117,-754.878 685.79,-727.445"/>
</g>
<!-- 328 -->
<g id="node18" class="node"><title>328</title>
<ellipse fill="#5b4a6f" stroke="black" cx="-1141.63" cy="508.149" rx="31" ry="31"/>
<text text-anchor="middle" x="-1141.63" y="511.849" font-family="Times New Roman,serif" font-size="14.00">328</text>
</g>
<!-- 328&#45;&#45;1518 -->
<g id="edge32" class="edge"><title>328&#45;&#45;1518</title>
<path fill="none" stroke="#48b733" d="M-1110.55,510.725C-1064.37,514.554 -978.224,521.696 -933.138,525.433"/>
</g>
<!-- 1376 -->
<g id="node19" class="node"><title>1376</title>
<polygon fill="#105f5a" stroke="black" points="461.448,-728.631 431.448,-749.361 401.448,-728.631 412.907,-695.09 449.989,-695.09 461.448,-728.631"/>
<text text-anchor="middle" x="431.448" y="-715.661" font-family="Times New Roman,serif" font-size="14.00">1376</text>
</g>
<!-- 1376&#45;&#45;5864 -->
<g id="edge33" class="edge"><title>1376&#45;&#45;5864</title>
<path fill="none" stroke="#3dc22e" d="M443.654,-694.898C463.382,-655.358 501.936,-578.089 520.504,-540.875"/>
</g>
<!-- 3957 -->
<g id="node20" class="node"><title>3957</title>
<polygon fill="#9e4b64" stroke="black" points="340.744,75.6374 292.884,119.137 388.603,119.137 340.744,75.6374"/>
<text text-anchor="middle" x="340.744" y="108.337" font-family="Times New Roman,serif" font-size="14.00">3957</text>
</g>
<!-- 3957&#45;&#45;2566 -->
<g id="edge34" class="edge"><title>3957&#45;&#45;2566</title>
<path fill="none" stroke="#f50a09" d="M332.596,82.7055C321.933,54.0034 303.486,4.34687 293.953,-21.3146"/>
</g>
<!-- 873 -->
<g id="node21" class="node"><title>873</title>
<ellipse fill="#1a1017" stroke="black" cx="822.562" cy="-164.052" rx="28.5" ry="28.5"/>
<text text-anchor="middle" x="822.562" y="-160.352" font-family="Times New Roman,serif" font-size="14.00" fill="white">873</text>
</g>
<!-- 873&#45;&#45;5268 -->
<g id="edge35" class="edge"><title>873&#45;&#45;5268</title>
<path fill="none" stroke="#25da1f" d="M794.034,-167.431C759.844,-171.48 702.796,-178.237 667.793,-182.383"/>
</g>
<!-- 5864&#45;&#45;4943 -->
<g id="edge36" class="edge"><title>5864&#45;&#45;4943</title>
<path fill="none" stroke="#25da1f" d="M545.991,-538.153C577.344,-576.402 649.176,-664.033 676.552,-697.431"/>
</g>
<!-- 2502 -->
<g id="node24" class="node"><title>2502</title>
<ellipse fill="#14101b" stroke="black" cx="-959.781" cy="719.741" rx="25.5" ry="25.5"/>
<text text-anchor="middle" x="-959.781" y="723.441" font-family="Times New Roman,serif" font-size="14.00" fill="white">2502</text>
</g>
<!-- 3717 -->
<g id="node34" class="node"><title>3717</title>
<polygon fill="#050632" stroke="black" points="-1065.22,912.242 -1105.16,930.742 -1065.22,949.242 -1025.29,930.742 -1065.22,912.242"/>
<text text-anchor="middle" x="-1065.22" y="934.442" font-family="Times New Roman,serif" font-size="14.00" fill="white">3717</text>
</g>
<!-- 2502&#45;&#45;3717 -->
<g id="edge38" class="edge"><title>2502&#45;&#45;3717</title>
<path fill="none" stroke="#45ba32" d="M-971.267,742.724C-992.937,786.088 -1039.32,878.905 -1057.6,915.478"/>
</g>
<!-- 2502&#45;&#45;1518 -->
<g id="edge37" class="edge"><title>2502&#45;&#45;1518</title>
<path fill="none" stroke="#1ee11b" d="M-952.593,695.048C-941.13,655.673 -918.989,579.619 -909.012,545.35"/>
</g>
<!-- 5617 -->
<g id="node25" class="node"><title>5617</title>
<polygon fill="#a83ff2" stroke="black" points="1012.32,228.8 962.715,266.3 1061.93,266.3 1012.32,228.8"/>
<text text-anchor="middle" x="1012.32" y="257.5" font-family="Times New Roman,serif" font-size="14.00">5617</text>
</g>
<!-- 5567 -->
<g id="node45" class="node"><title>5567</title>
<polygon fill="#ea33a8" stroke="black" points="1223.21,144.476 1160.76,193.307 1285.66,193.307 1223.21,144.476"/>
<text text-anchor="middle" x="1223.21" y="180.73" font-family="Times New Roman,serif" font-size="14.00">5567</text>
</g>
<!-- 5617&#45;&#45;5567 -->
<g id="edge39" class="edge"><title>5617&#45;&#45;5567</title>
<path fill="none" stroke="#2ad523" d="M1034.89,245.584C1069,233.167 1134.36,209.374 1178.38,193.349"/>
</g>
<!-- 5617&#45;&#45;3897 -->
<g id="edge41" class="edge"><title>5617&#45;&#45;3897</title>
<path fill="none" stroke="#3bc42e" d="M1019.19,266.317C1036.88,298.571 1084.22,384.882 1106.95,426.327"/>
</g>
<!-- 109 -->
<g id="node51" class="node"><title>109</title>
<polygon fill="#ce88ac" stroke="black" points="805.341,113.232 753.189,162.063 857.494,162.063 805.341,113.232"/>
<text text-anchor="middle" x="805.341" y="149.486" font-family="Times New Roman,serif" font-size="14.00">109</text>
</g>
<!-- 5617&#45;&#45;109 -->
<g id="edge40" class="edge"><title>5617&#45;&#45;109</title>
<path fill="none" stroke="#35ca2a" d="M992.477,243.443C956.455,224.645 880.054,184.775 836.841,162.224"/>
</g>
<!-- 2239 -->
<g id="node26" class="node"><title>2239</title>
<ellipse fill="#816375" stroke="black" cx="766.215" cy="-328.11" rx="25.1298" ry="24"/>
<text text-anchor="middle" x="766.215" y="-324.41" font-family="Times New Roman,serif" font-size="14.00">2239</text>
</g>
<!-- 2239&#45;&#45;5268 -->
<g id="edge42" class="edge"><title>2239&#45;&#45;5268</title>
<path fill="none" stroke="#1be418" d="M749.636,-309.821C723.812,-281.331 674.487,-226.917 650.77,-200.753"/>
</g>
<!-- 1720 -->
<g id="node27" class="node"><title>1720</title>
<polygon fill="#455832" stroke="black" points="-109.547,-328.099 -109.547,-347.567 -125.429,-361.333 -147.89,-361.333 -163.772,-347.567 -163.772,-328.099 -147.89,-314.333 -125.429,-314.333 -109.547,-328.099"/>
<text text-anchor="middle" x="-136.659" y="-334.133" font-family="Times New Roman,serif" font-size="14.00" fill="white">1720</text>
</g>
<!-- 1437 -->
<g id="node30" class="node"><title>1437</title>
<polygon fill="#8ba75e" stroke="black" points="-129.045,-175.431 -173.045,-175.431 -173.045,-133.431 -129.045,-133.431 -129.045,-175.431"/>
<text text-anchor="middle" x="-151.045" y="-150.731" font-family="Times New Roman,serif" font-size="14.00">1437</text>
</g>
<!-- 1720&#45;&#45;1437 -->
<g id="edge43" class="edge"><title>1720&#45;&#45;1437</title>
<path fill="none" stroke="#13ec11" d="M-138.511,-314.232C-141.334,-278.242 -146.671,-210.192 -149.379,-175.668"/>
</g>
<!-- 3077&#45;&#45;109 -->
<g id="edge44" class="edge"><title>3077&#45;&#45;109</title>
<path fill="none" stroke="#28d721" d="M666.687,34.1446C694.518,56.5536 755.673,105.794 786.618,130.71"/>
</g>
<!-- 1808 -->
<g id="node35" class="node"><title>1808</title>
<polygon fill="#85b15e" stroke="black" points="-222.323,-304.693 -266.323,-304.693 -266.323,-268.693 -222.323,-268.693 -222.323,-304.693"/>
<text text-anchor="middle" x="-244.323" y="-282.993" font-family="Times New Roman,serif" font-size="14.00">1808</text>
</g>
<!-- 1437&#45;&#45;1808 -->
<g id="edge45" class="edge"><title>1437&#45;&#45;1808</title>
<path fill="none" stroke="#0af50a" d="M-166.032,-175.681C-184.159,-201.385 -214.366,-244.216 -231.475,-268.476"/>
</g>
<!-- 1437&#45;&#45;4195 -->
<g id="edge46" class="edge"><title>1437&#45;&#45;4195</title>
<path fill="none" stroke="#0ff00e" d="M-146.241,-133.127C-138.573,-99.1183 -123.703,-33.1675 -116.545,-1.42205"/>
</g>
<!-- 3662 -->
<g id="node42" class="node"><title>3662</title>
<polygon fill="#9d73db" stroke="black" points="897.199,-844.941 834.747,-796.11 959.65,-796.11 897.199,-844.941"/>
<text text-anchor="middle" x="897.199" y="-808.687" font-family="Times New Roman,serif" font-size="14.00">3662</text>
</g>
<!-- 4943&#45;&#45;3662 -->
<g id="edge47" class="edge"><title>4943&#45;&#45;3662</title>
<path fill="none" stroke="#b84733" d="M706.781,-720.076C742.485,-737.385 819.098,-774.525 863.495,-796.048"/>
</g>
<!-- 2416 -->
<g id="node38" class="node"><title>2416</title>
<ellipse fill="#535c62" stroke="black" cx="238.928" cy="655.26" rx="30.8593" ry="16.5"/>
<text text-anchor="middle" x="238.928" y="658.96" font-family="Times New Roman,serif" font-size="14.00">2416</text>
</g>
<!-- 2416&#45;&#45;74 -->
<g id="edge48" class="edge"><title>2416&#45;&#45;74</title>
<path fill="none" stroke="#30cf27" d="M235.197,638.745C227.033,602.604 207.64,516.762 199.204,479.417"/>
</g>
<!-- 4030&#45;&#45;1896 -->
<g id="edge49" class="edge"><title>4030&#45;&#45;1896</title>
<path fill="none" stroke="#17e815" d="M-814.324,-409.197C-790.037,-381.729 -739.282,-324.327 -716.122,-298.134"/>
</g>
<!-- 1697 -->
<g id="node43" class="node"><title>1697</title>
<polygon fill="#7b9149" stroke="black" points="-145.431,93.597 -189.431,93.597 -189.431,121.597 -145.431,121.597 -145.431,93.597"/>
<text text-anchor="middle" x="-167.431" y="111.297" font-family="Times New Roman,serif" font-size="14.00">1697</text>
</g>
<!-- 1697&#45;&#45;4195 -->
<g id="edge50" class="edge"><title>1697&#45;&#45;4195</title>
<path fill="none" stroke="#0af50a" d="M-158.848,93.3639C-149.253,77.4518 -133.699,51.6567 -123.289,34.3934"/>
</g>
</g>
</svg>
