<?xml version="1.0" encoding="UTF-8" standalone="no"?>
<!DOCTYPE svg PUBLIC "-//W3C//DTD SVG 1.1//EN"
 "http://www.w3.org/Graphics/SVG/1.1/DTD/svg11.dtd">
<!-- Generated by graphviz version 2.38.0 (20140413.2041)
 -->
<!-- Title: G Pages: 1 -->
<svg width="1959pt" height="2714pt"
 viewBox="0.00 0.00 1958.82 2713.67" xmlns="http://www.w3.org/2000/svg" xmlns:xlink="http://www.w3.org/1999/xlink">
<g id="graph0" class="graph" transform="scale(1 1) rotate(0) translate(828.07 1319.51)">
<title>G</title>
<polygon fill="white" stroke="none" points="-828.07,1394.16 -828.07,-1319.51 1130.75,-1319.51 1130.75,1394.16 -828.07,1394.16"/>
<!-- 1 -->
<g id="node1" class="node"><title>1</title>
<polygon fill="#433543" stroke="black" points="-587.602,480.525 -641.602,534.525 -587.602,588.525 -533.602,534.525 -587.602,480.525"/>
<text text-anchor="middle" x="-587.602" y="538.225" font-family="Times New Roman,serif" font-size="14.00" fill="white">1</text>
</g>
<!-- 3635 -->
<g id="node10" class="node"><title>3635</title>
<ellipse fill="#49595a" stroke="black" cx="-381.878" cy="578.873" rx="40.5" ry="40.5"/>
<text text-anchor="middle" x="-381.878" y="582.573" font-family="Times New Roman,serif" font-size="14.00">3635</text>
</g>
<!-- 1&#45;&#45;3635 -->
<g id="edge1" class="edge"><title>1&#45;&#45;3635</title>
<path fill="none" stroke="#1de21a" d="M-542.963,544.148C-506.801,551.943 -456.326,562.824 -421.562,570.318"/>
</g>
<!-- 1027 -->
<g id="node2" class="node"><title>1027</title>
<ellipse fill="#596f60" stroke="black" cx="-194.083" cy="578.853" rx="52.5" ry="52.5"/>
<text text-anchor="middle" x="-194.083" y="582.553" font-family="Times New Roman,serif" font-size="14.00">1027</text>
</g>
<!-- 52 -->
<g id="node4" class="node"><title>52</title>
<polygon fill="#91b186" stroke="black" points="-102.458,753.128 -151.458,719.269 -200.458,753.128 -181.742,807.911 -121.174,807.911 -102.458,753.128"/>
<text text-anchor="middle" x="-151.458" y="771.969" font-family="Times New Roman,serif" font-size="14.00">52</text>
</g>
<!-- 1027&#45;&#45;52 -->
<g id="edge4" class="edge"><title>1027&#45;&#45;52</title>
<path fill="none" stroke="#0cf30c" d="M-182.548,630.112C-175.817,660.023 -167.425,697.316 -161.057,725.614"/>
</g>
<!-- 2 -->
<g id="node9" class="node"><title>2</title>
<ellipse fill="#3b4d3d" stroke="black" cx="-127.505" cy="403.955" rx="41.5" ry="41.5"/>
<text text-anchor="middle" x="-127.505" y="407.655" font-family="Times New Roman,serif" font-size="14.00" fill="white">2</text>
</g>
<!-- 1027&#45;&#45;2 -->
<g id="edge2" class="edge"><title>1027&#45;&#45;2</title>
<path fill="none" stroke="#08f708" d="M-175.36,529.669C-164.899,502.187 -152.046,468.425 -142.296,442.811"/>
</g>
<!-- 1027&#45;&#45;3635 -->
<g id="edge3" class="edge"><title>1027&#45;&#45;3635</title>
<path fill="none" stroke="#0af50a" d="M-246.894,578.859C-276.836,578.862 -313.722,578.866 -341.364,578.869"/>
</g>
<!-- 825 -->
<g id="node3" class="node"><title>825</title>
<ellipse fill="#356585" stroke="black" cx="-362.901" cy="336.076" rx="50.5" ry="50.5"/>
<text text-anchor="middle" x="-362.901" y="339.776" font-family="Times New Roman,serif" font-size="14.00">825</text>
</g>
<!-- 825&#45;&#45;2 -->
<g id="edge5" class="edge"><title>825&#45;&#45;2</title>
<path fill="none" stroke="#46b933" d="M-314.127,350.14C-270.764,362.644 -208.131,380.705 -167.616,392.388"/>
</g>
<!-- 2010 -->
<g id="node13" class="node"><title>2010</title>
<polygon fill="#94b986" stroke="black" points="-255.923,878.444 -292.423,853.223 -328.923,878.444 -314.981,919.252 -269.865,919.252 -255.923,878.444"/>
<text text-anchor="middle" x="-292.423" y="893.423" font-family="Times New Roman,serif" font-size="14.00">2010</text>
</g>
<!-- 52&#45;&#45;2010 -->
<g id="edge7" class="edge"><title>52&#45;&#45;2010</title>
<path fill="none" stroke="#11ee10" d="M-185.582,797.67C-211.33,819.855 -245.993,849.72 -268.759,869.335"/>
</g>
<!-- 512 -->
<g id="node17" class="node"><title>512</title>
<polygon fill="#98b67b" stroke="black" points="14.5083,882.162 -17.4917,860.051 -49.4917,882.162 -37.2688,917.939 2.28539,917.939 14.5083,882.162"/>
<text text-anchor="middle" x="-17.4917" y="895.751" font-family="Times New Roman,serif" font-size="14.00">512</text>
</g>
<!-- 52&#45;&#45;512 -->
<g id="edge6" class="edge"><title>52&#45;&#45;512</title>
<path fill="none" stroke="#0bf40b" d="M-117.998,799.185C-92.7334,822.529 -58.8953,853.795 -37.6441,873.43"/>
</g>
<!-- 1975 -->
<g id="node5" class="node"><title>1975</title>
<polygon fill="#b6e07a" stroke="black" points="312.086,1318.77 264.586,1285.95 217.086,1318.77 235.23,1371.88 293.943,1371.88 312.086,1318.77"/>
<text text-anchor="middle" x="264.586" y="1337.15" font-family="Times New Roman,serif" font-size="14.00">1975</text>
</g>
<!-- 4030 -->
<g id="node41" class="node"><title>4030</title>
<polygon fill="#8ef1b4" stroke="black" points="214.237,1201.33 214.237,1186.67 194.406,1176.29 166.361,1176.29 146.53,1186.67 146.53,1201.33 166.361,1211.71 194.406,1211.71 214.237,1201.33"/>
<text text-anchor="middle" x="180.383" y="1197.7" font-family="Times New Roman,serif" font-size="14.00">4030</text>
</g>
<!-- 1975&#45;&#45;4030 -->
<g id="edge8" class="edge"><title>1975&#45;&#45;4030</title>
<path fill="none" stroke="#15ea14" d="M244.203,1299.69C227.46,1271.96 204.406,1233.78 191.08,1211.71"/>
</g>
<!-- 1831 -->
<g id="node6" class="node"><title>1831</title>
<polygon fill="#1c2412" stroke="black" points="-45.2949,-208.501 -91.2949,-240.286 -137.295,-208.501 -119.724,-157.071 -62.8653,-157.071 -45.2949,-208.501"/>
<text text-anchor="middle" x="-91.2949" y="-190.586" font-family="Times New Roman,serif" font-size="14.00" fill="white">1831</text>
</g>
<!-- 3602 -->
<g id="node11" class="node"><title>3602</title>
<polygon fill="#1d2311" stroke="black" points="55.5117,-177.664 16.5117,-204.613 -22.4883,-177.664 -7.59164,-134.061 40.615,-134.061 55.5117,-177.664"/>
<text text-anchor="middle" x="16.5117" y="-161.913" font-family="Times New Roman,serif" font-size="14.00" fill="white">3602</text>
</g>
<!-- 1831&#45;&#45;3602 -->
<g id="edge9" class="edge"><title>1831&#45;&#45;3602</title>
<path fill="none" stroke="#0ef10e" d="M-53.2863,-184.177C-43.1019,-181.468 -32.0862,-178.538 -21.8811,-175.824"/>
</g>
<!-- 6636 -->
<g id="node7" class="node"><title>6636</title>
<polygon fill="#302f0d" stroke="black" points="53.6246,-590.194 -35.3754,-590.194 -35.3754,-501.194 53.6246,-501.194 53.6246,-590.194"/>
<text text-anchor="middle" x="9.12463" y="-541.994" font-family="Times New Roman,serif" font-size="14.00" fill="white">6636</text>
</g>
<!-- 1958 -->
<g id="node14" class="node"><title>1958</title>
<polygon fill="#131705" stroke="black" points="-115.815,-707.714 -186.815,-707.714 -186.815,-636.714 -115.815,-636.714 -115.815,-707.714"/>
<text text-anchor="middle" x="-151.315" y="-668.514" font-family="Times New Roman,serif" font-size="14.00" fill="white">1958</text>
</g>
<!-- 6636&#45;&#45;1958 -->
<g id="edge11" class="edge"><title>6636&#45;&#45;1958</title>
<path fill="none" stroke="#0ef10d" d="M-35.5667,-580.937C-60.8793,-600.898 -92.1062,-625.523 -115.744,-644.163"/>
</g>
<!-- 2566 -->
<g id="node32" class="node"><title>2566</title>
<polygon fill="#474313" stroke="black" points="123.607,-387.241 79.6071,-387.241 79.6071,-347.241 123.607,-347.241 123.607,-387.241"/>
<text text-anchor="middle" x="101.607" y="-363.541" font-family="Times New Roman,serif" font-size="14.00" fill="white">2566</text>
</g>
<!-- 6636&#45;&#45;2566 -->
<g id="edge10" class="edge"><title>6636&#45;&#45;2566</title>
<path fill="none" stroke="#0cf30c" d="M32.2233,-501.123C51.0558,-464.784 76.7883,-415.131 91.032,-387.646"/>
</g>
<!-- 5692 -->
<g id="node39" class="node"><title>5692</title>
<polygon fill="#a2a55c" stroke="black" points="-92.2708,-523.836 -130.686,-537.798 -169.101,-523.836 -154.427,-501.245 -106.944,-501.245 -92.2708,-523.836"/>
<text text-anchor="middle" x="-130.686" y="-513.892" font-family="Times New Roman,serif" font-size="14.00">5692</text>
</g>
<!-- 6636&#45;&#45;5692 -->
<g id="edge13" class="edge"><title>6636&#45;&#45;5692</title>
<path fill="none" stroke="#12ed11" d="M-35.4966,-536.725C-54.6762,-532.87 -76.7905,-528.425 -94.8739,-524.79"/>
</g>
<!-- 2563 -->
<g id="node40" class="node"><title>2563</title>
<polygon fill="#b40fa9" stroke="black" points="185.833,-658.036 123.382,-609.206 248.285,-609.206 185.833,-658.036"/>
<text text-anchor="middle" x="185.833" y="-621.783" font-family="Times New Roman,serif" font-size="14.00">2563</text>
</g>
<!-- 6636&#45;&#45;2563 -->
<g id="edge14" class="edge"><title>6636&#45;&#45;2563</title>
<path fill="none" stroke="#d82721" d="M53.7157,-565.828C83.3662,-579.216 121.814,-596.576 149.58,-609.113"/>
</g>
<!-- 5268 -->
<g id="node50" class="node"><title>5268</title>
<polygon fill="#421b27" stroke="black" points="85.3927,-729.953 41.3927,-706.953 85.3927,-683.953 129.393,-706.953 85.3927,-729.953"/>
<text text-anchor="middle" x="85.3927" y="-703.253" font-family="Times New Roman,serif" font-size="14.00" fill="white">5268</text>
</g>
<!-- 6636&#45;&#45;5268 -->
<g id="edge12" class="edge"><title>6636&#45;&#45;5268</title>
<path fill="none" stroke="#f00f0e" d="M30.3696,-590.614C45.62,-622.859 65.3865,-664.652 76.6008,-688.363"/>
</g>
<!-- 1839 -->
<g id="node8" class="node"><title>1839</title>
<polygon fill="#617541" stroke="black" points="226.79,289.627 183.79,259.915 140.79,289.627 157.215,337.703 210.365,337.703 226.79,289.627"/>
<text text-anchor="middle" x="183.79" y="306.615" font-family="Times New Roman,serif" font-size="14.00">1839</text>
</g>
<!-- 3794 -->
<g id="node23" class="node"><title>3794</title>
<polygon fill="#94a26b" stroke="black" points="392.571,369.306 362.202,350.994 331.834,369.306 343.433,398.933 380.971,398.933 392.571,369.306"/>
<text text-anchor="middle" x="362.202" y="381.194" font-family="Times New Roman,serif" font-size="14.00">3794</text>
</g>
<!-- 1839&#45;&#45;3794 -->
<g id="edge16" class="edge"><title>1839&#45;&#45;3794</title>
<path fill="none" stroke="#1de219" d="M217.768,317.118C252.244,331.53 304.865,353.526 336.168,366.612"/>
</g>
<!-- 4195 -->
<g id="node46" class="node"><title>4195</title>
<polygon fill="#4e5e3b" stroke="black" points="36.0325,239.459 -2.38236,225.497 -40.7972,239.459 -26.1241,262.05 21.3593,262.05 36.0325,239.459"/>
<text text-anchor="middle" x="-2.38236" y="249.403" font-family="Times New Roman,serif" font-size="14.00">4195</text>
</g>
<!-- 1839&#45;&#45;4195 -->
<g id="edge15" class="edge"><title>1839&#45;&#45;4195</title>
<path fill="none" stroke="#06f906" d="M140.61,289.646C105.485,278.851 56.9,263.921 26.3754,254.54"/>
</g>
<!-- 2&#45;&#45;4195 -->
<g id="edge17" class="edge"><title>2&#45;&#45;4195</title>
<path fill="none" stroke="#0df20c" d="M-101.58,371.165C-75.3811,338.03 -35.9483,288.156 -15.5896,262.407"/>
</g>
<!-- 131 -->
<g id="node28" class="node"><title>131</title>
<ellipse fill="#7a9094" stroke="black" cx="-522.305" cy="660.607" rx="22.5" ry="22.5"/>
<text text-anchor="middle" x="-522.305" y="664.307" font-family="Times New Roman,serif" font-size="14.00">131</text>
</g>
<!-- 3635&#45;&#45;131 -->
<g id="edge18" class="edge"><title>3635&#45;&#45;131</title>
<path fill="none" stroke="#0cf30c" d="M-416.951,599.287C-444.084,615.08 -480.651,636.363 -502.796,649.252"/>
</g>
<!-- 1765 -->
<g id="node12" class="node"><title>1765</title>
<polygon fill="#333b29" stroke="black" points="-173.429,-194.056 -211.429,-220.313 -249.429,-194.056 -234.915,-151.571 -187.944,-151.571 -173.429,-194.056"/>
<text text-anchor="middle" x="-211.429" y="-178.613" font-family="Times New Roman,serif" font-size="14.00" fill="white">1765</text>
</g>
<!-- 3602&#45;&#45;1765 -->
<g id="edge20" class="edge"><title>3602&#45;&#45;1765</title>
<path fill="none" stroke="#10ef0f" d="M-19.3549,-168.241C-62.8596,-171.428 -135.619,-176.759 -177.997,-179.864"/>
</g>
<!-- 1437 -->
<g id="node30" class="node"><title>1437</title>
<polygon fill="#87955e" stroke="black" points="46.271,41.2527 13.7714,26.7421 -18.7283,41.2527 -6.3145,64.7314 33.8572,64.7314 46.271,41.2527"/>
<text text-anchor="middle" x="13.7714" y="51.4421" font-family="Times New Roman,serif" font-size="14.00">1437</text>
</g>
<!-- 3602&#45;&#45;1437 -->
<g id="edge19" class="edge"><title>3602&#45;&#45;1437</title>
<path fill="none" stroke="#0ff00e" d="M16.1014,-133.671C15.5341,-89.4972 14.5254,-10.9639 14.043,26.5937"/>
</g>
<!-- 3602&#45;&#45;2566 -->
<g id="edge21" class="edge"><title>3602&#45;&#45;2566</title>
<path fill="none" stroke="#19e616" d="M29.4358,-196.236C47.0573,-237.988 78.1367,-311.629 93.0944,-347.071"/>
</g>
<!-- 74 -->
<g id="node48" class="node"><title>74</title>
<ellipse fill="#3b4d44" stroke="black" cx="-413.159" cy="-197.323" rx="21.4286" ry="16.0303"/>
<text text-anchor="middle" x="-413.159" y="-193.623" font-family="Times New Roman,serif" font-size="14.00" fill="white">74</text>
</g>
<!-- 1765&#45;&#45;74 -->
<g id="edge22" class="edge"><title>1765&#45;&#45;74</title>
<path fill="none" stroke="#23dc1e" d="M-246.568,-184.928C-288.561,-188.052 -357.475,-193.18 -392.023,-195.75"/>
</g>
<!-- 3718 -->
<g id="node47" class="node"><title>3718</title>
<ellipse fill="#5a8471" stroke="black" cx="-451.589" cy="1014.14" rx="31.2258" ry="16.0303"/>
<text text-anchor="middle" x="-451.589" y="1017.84" font-family="Times New Roman,serif" font-size="14.00">3718</text>
</g>
<!-- 2010&#45;&#45;3718 -->
<g id="edge23" class="edge"><title>2010&#45;&#45;3718</title>
<path fill="none" stroke="#1be418" d="M-318.35,909.99C-350.943,935.467 -406.011,978.513 -434.049,1000.43"/>
</g>
<!-- 5864 -->
<g id="node22" class="node"><title>5864</title>
<polygon fill="#1f2906" stroke="black" points="-230.772,-860.346 -285.772,-860.346 -285.772,-805.346 -230.772,-805.346 -230.772,-860.346"/>
<text text-anchor="middle" x="-258.272" y="-829.146" font-family="Times New Roman,serif" font-size="14.00" fill="white">5864</text>
</g>
<!-- 1958&#45;&#45;5864 -->
<g id="edge24" class="edge"><title>1958&#45;&#45;5864</title>
<path fill="none" stroke="#10ef0f" d="M-175.052,-707.863C-194.623,-737.256 -221.986,-778.35 -239.912,-805.272"/>
</g>
<!-- 2586 -->
<g id="node33" class="node"><title>2586</title>
<polygon fill="#38430d" stroke="black" points="-299.423,-662.34 -343.423,-662.34 -343.423,-624.34 -299.423,-624.34 -299.423,-662.34"/>
<text text-anchor="middle" x="-321.423" y="-639.64" font-family="Times New Roman,serif" font-size="14.00" fill="white">2586</text>
</g>
<!-- 1958&#45;&#45;2586 -->
<g id="edge25" class="edge"><title>1958&#45;&#45;2586</title>
<path fill="none" stroke="#16e914" d="M-186.975,-666.161C-220.879,-660.406 -270.806,-651.932 -299.313,-647.093"/>
</g>
<!-- 3408 -->
<g id="node15" class="node"><title>3408</title>
<polygon fill="#0b93b9" stroke="black" points="-638.916,-1019.3 -685.754,-967.551 -592.077,-967.551 -638.916,-1019.3"/>
<text text-anchor="middle" x="-638.916" y="-981.101" font-family="Times New Roman,serif" font-size="14.00">3408</text>
</g>
<!-- 3717 -->
<g id="node34" class="node"><title>3717</title>
<polygon fill="#210fb5" stroke="black" points="-767.899,-1103.6 -824.242,-1069.1 -711.556,-1069.1 -767.899,-1103.6"/>
<text text-anchor="middle" x="-767.899" y="-1076.9" font-family="Times New Roman,serif" font-size="14.00">3717</text>
</g>
<!-- 3408&#45;&#45;3717 -->
<g id="edge27" class="edge"><title>3408&#45;&#45;3717</title>
<path fill="none" stroke="#3dc22f" d="M-657.671,-998.731C-683.243,-1017.73 -728.582,-1051.4 -752.36,-1069.06"/>
</g>
<!-- 4943 -->
<g id="node37" class="node"><title>4943</title>
<polygon fill="#079386" stroke="black" points="-499.511,-928.249 -559.501,-893.749 -439.521,-893.749 -499.511,-928.249"/>
<text text-anchor="middle" x="-499.511" y="-901.549" font-family="Times New Roman,serif" font-size="14.00">4943</text>
</g>
<!-- 3408&#45;&#45;4943 -->
<g id="edge26" class="edge"><title>3408&#45;&#45;4943</title>
<path fill="none" stroke="#25da20" d="M-608.667,-967.539C-581.761,-952.185 -543.16,-930.157 -519.801,-916.827"/>
</g>
<!-- 2011 -->
<g id="node16" class="node"><title>2011</title>
<polygon fill="#bdc154" stroke="black" points="124.973,-891.751 91.4729,-914.899 57.9729,-891.751 70.7687,-854.297 112.177,-854.297 124.973,-891.751"/>
<text text-anchor="middle" x="91.4729" y="-877.699" font-family="Times New Roman,serif" font-size="14.00">2011</text>
</g>
<!-- 2011&#45;&#45;5268 -->
<g id="edge28" class="edge"><title>2011&#45;&#45;5268</title>
<path fill="none" stroke="#e31c19" d="M90.5229,-854.142C89.3272,-819.836 87.2954,-761.543 86.1814,-729.58"/>
</g>
<!-- 1896 -->
<g id="node44" class="node"><title>1896</title>
<polygon fill="#96d687" stroke="black" points="127.169,1025.93 88.7538,1011.97 50.3389,1025.93 65.0121,1048.52 112.495,1048.52 127.169,1025.93"/>
<text text-anchor="middle" x="88.7538" y="1035.87" font-family="Times New Roman,serif" font-size="14.00">1896</text>
</g>
<!-- 512&#45;&#45;1896 -->
<g id="edge29" class="edge"><title>512&#45;&#45;1896</title>
<path fill="none" stroke="#0ef10e" d="M2.24327,918.078C24.0871,946.887 58.5969,992.4 76.7227,1016.3"/>
</g>
<!-- 328 -->
<g id="node18" class="node"><title>328</title>
<polygon fill="#472f53" stroke="black" points="-222.821,-1315.51 -253.821,-1284.51 -222.821,-1253.51 -191.821,-1284.51 -222.821,-1315.51"/>
<text text-anchor="middle" x="-222.821" y="-1280.81" font-family="Times New Roman,serif" font-size="14.00" fill="white">328</text>
</g>
<!-- 1376 -->
<g id="node19" class="node"><title>1376</title>
<polygon fill="#129c76" stroke="black" points="-197.217,-1086.78 -257.217,-1086.78 -257.217,-1026.78 -197.217,-1026.78 -197.217,-1086.78"/>
<text text-anchor="middle" x="-227.217" y="-1053.08" font-family="Times New Roman,serif" font-size="14.00">1376</text>
</g>
<!-- 328&#45;&#45;1376 -->
<g id="edge30" class="edge"><title>328&#45;&#45;1376</title>
<path fill="none" stroke="#b64934" d="M-223.414,-1253.8C-224.257,-1210.09 -225.795,-1130.45 -226.634,-1087.01"/>
</g>
<!-- 1376&#45;&#45;5864 -->
<g id="edge31" class="edge"><title>1376&#45;&#45;5864</title>
<path fill="none" stroke="#37c82b" d="M-231.405,-1026.58C-237.465,-982.888 -248.59,-902.663 -254.442,-860.463"/>
</g>
<!-- 3957 -->
<g id="node20" class="node"><title>3957</title>
<polygon fill="#7b3d50" stroke="black" points="294.718,-409.139 260.935,-380.139 294.718,-351.139 328.501,-380.139 294.718,-409.139"/>
<text text-anchor="middle" x="294.718" y="-376.439" font-family="Times New Roman,serif" font-size="14.00">3957</text>
</g>
<!-- 2239 -->
<g id="node26" class="node"><title>2239</title>
<polygon fill="#563a48" stroke="black" points="494.608,-474.643 459.214,-450.643 494.608,-426.643 530.002,-450.643 494.608,-474.643"/>
<text text-anchor="middle" x="494.608" y="-446.943" font-family="Times New Roman,serif" font-size="14.00" fill="white">2239</text>
</g>
<!-- 3957&#45;&#45;2239 -->
<g id="edge33" class="edge"><title>3957&#45;&#45;2239</title>
<path fill="none" stroke="#1ce319" d="M318.829,-388.643C357.457,-402.268 432.746,-428.823 471.032,-442.327"/>
</g>
<!-- 1321 -->
<g id="node31" class="node"><title>1321</title>
<polygon fill="#372933" stroke="black" points="440.449,-299.008 402.783,-278.508 440.449,-258.008 478.116,-278.508 440.449,-299.008"/>
<text text-anchor="middle" x="440.449" y="-274.808" font-family="Times New Roman,serif" font-size="14.00" fill="white">1321</text>
</g>
<!-- 3957&#45;&#45;1321 -->
<g id="edge34" class="edge"><title>3957&#45;&#45;1321</title>
<path fill="none" stroke="#27d821" d="M313.471,-367.06C342.069,-347.117 396.141,-309.407 423.574,-290.276"/>
</g>
<!-- 3957&#45;&#45;2566 -->
<g id="edge32" class="edge"><title>3957&#45;&#45;2566</title>
<path fill="none" stroke="#f40b0b" d="M263.261,-378.038C224.038,-375.418 157.988,-371.006 123.722,-368.718"/>
</g>
<!-- 873 -->
<g id="node21" class="node"><title>873</title>
<polygon fill="#0f050a" stroke="black" points="242.516,-860.98 213.828,-832.48 242.516,-803.98 271.205,-832.48 242.516,-860.98"/>
<text text-anchor="middle" x="242.516" y="-828.78" font-family="Times New Roman,serif" font-size="14.00" fill="white">873</text>
</g>
<!-- 873&#45;&#45;5268 -->
<g id="edge35" class="edge"><title>873&#45;&#45;5268</title>
<path fill="none" stroke="#24db1f" d="M226.586,-819.753C196.939,-796.068 133.524,-745.405 102.796,-720.856"/>
</g>
<!-- 5864&#45;&#45;4943 -->
<g id="edge36" class="edge"><title>5864&#45;&#45;4943</title>
<path fill="none" stroke="#27d821" d="M-285.945,-841.152C-329.014,-854.078 -412.198,-879.044 -461.07,-893.712"/>
</g>
<!-- 2502 -->
<g id="node24" class="node"><title>2502</title>
<polygon fill="#451636" stroke="black" points="907,-521.185 872.282,-495.685 907,-470.185 941.718,-495.685 907,-521.185"/>
<text text-anchor="middle" x="907" y="-491.985" font-family="Times New Roman,serif" font-size="14.00" fill="white">2502</text>
</g>
<!-- 3077 -->
<g id="node29" class="node"><title>3077</title>
<polygon fill="#df65a8" stroke="black" points="1060.37,-677.61 1023.87,-655.61 1060.37,-633.61 1096.86,-655.61 1060.37,-677.61"/>
<text text-anchor="middle" x="1060.37" y="-651.91" font-family="Times New Roman,serif" font-size="14.00">3077</text>
</g>
<!-- 2502&#45;&#45;3077 -->
<g id="edge38" class="edge"><title>2502&#45;&#45;3077</title>
<path fill="none" stroke="#28d722" d="M921.429,-510.73C950.957,-541.522 1017.92,-611.351 1046.75,-641.411"/>
</g>
<!-- 1518 -->
<g id="node36" class="node"><title>1518</title>
<polygon fill="#5f4658" stroke="black" points="692.767,-523.547 651.713,-506.047 692.767,-488.547 733.821,-506.047 692.767,-523.547"/>
<text text-anchor="middle" x="692.767" y="-502.347" font-family="Times New Roman,serif" font-size="14.00">1518</text>
</g>
<!-- 2502&#45;&#45;1518 -->
<g id="edge37" class="edge"><title>2502&#45;&#45;1518</title>
<path fill="none" stroke="#26d920" d="M873.996,-497.281C835.029,-499.166 770.395,-502.292 729.767,-504.257"/>
</g>
<!-- 3662 -->
<g id="node42" class="node"><title>3662</title>
<polygon fill="#666fb1" stroke="black" points="1126.93,-403.114 1126.93,-417.783 1107.1,-428.156 1079.05,-428.156 1059.22,-417.783 1059.22,-403.114 1079.05,-392.741 1107.1,-392.741 1126.93,-403.114"/>
<text text-anchor="middle" x="1093.07" y="-406.749" font-family="Times New Roman,serif" font-size="14.00">3662</text>
</g>
<!-- 2502&#45;&#45;3662 -->
<g id="edge39" class="edge"><title>2502&#45;&#45;3662</title>
<path fill="none" stroke="#c33c2e" d="M928.709,-485.741C963.222,-469.931 1030.46,-439.131 1067.34,-422.236"/>
</g>
<!-- 5617 -->
<g id="node25" class="node"><title>5617</title>
<polygon fill="#8cefee" stroke="black" points="118.376,1375.52 118.376,1354.81 102.772,1340.16 80.7044,1340.16 65.1001,1354.81 65.1001,1375.52 80.7044,1390.16 102.772,1390.16 118.376,1375.52"/>
<text text-anchor="middle" x="91.7382" y="1368.86" font-family="Times New Roman,serif" font-size="14.00">5617</text>
</g>
<!-- 5617&#45;&#45;4030 -->
<g id="edge40" class="edge"><title>5617&#45;&#45;4030</title>
<path fill="none" stroke="#19e616" d="M104.064,1341.36C122.046,1306.64 155.075,1242.87 171.132,1211.86"/>
</g>
<!-- 2239&#45;&#45;1518 -->
<g id="edge41" class="edge"><title>2239&#45;&#45;1518</title>
<path fill="none" stroke="#1ee11b" d="M519.705,-457.66C557.822,-468.317 629.879,-488.464 667.874,-499.087"/>
</g>
<!-- 1720 -->
<g id="node27" class="node"><title>1720</title>
<polygon fill="#506338" stroke="black" points="207.357,51.8489 175.992,35.6108 144.626,51.8489 156.607,78.1227 195.377,78.1227 207.357,51.8489"/>
<text text-anchor="middle" x="175.992" y="62.8108" font-family="Times New Roman,serif" font-size="14.00">1720</text>
</g>
<!-- 1720&#45;&#45;1437 -->
<g id="edge42" class="edge"><title>1720&#45;&#45;1437</title>
<path fill="none" stroke="#12ed11" d="M146.99,57.0783C117.28,54.9962 71.3959,51.7805 41.9787,49.7189"/>
</g>
<!-- 1808 -->
<g id="node35" class="node"><title>1808</title>
<polygon fill="#839c5f" stroke="black" points="-99.0196,50.0671 -134.217,37.6294 -169.415,50.0671 -155.97,70.1917 -112.464,70.1917 -99.0196,50.0671"/>
<text text-anchor="middle" x="-134.217" y="59.3294" font-family="Times New Roman,serif" font-size="14.00">1808</text>
</g>
<!-- 1437&#45;&#45;1808 -->
<g id="edge43" class="edge"><title>1437&#45;&#45;1808</title>
<path fill="none" stroke="#0bf40b" d="M-14.7623,49.2628C-39.5398,50.5834 -75.421,52.4958 -101.385,53.8796"/>
</g>
<!-- 1437&#45;&#45;4195 -->
<g id="edge44" class="edge"><title>1437&#45;&#45;4195</title>
<path fill="none" stroke="#0ff00e" d="M12.3661,64.9635C9.37246,101.65 2.38216,187.315 -0.779181,226.056"/>
</g>
<!-- 109 -->
<g id="node51" class="node"><title>109</title>
<polygon fill="#d997bd" stroke="black" points="752.235,-712.977 715.235,-689.977 752.235,-666.977 789.235,-689.977 752.235,-712.977"/>
<text text-anchor="middle" x="752.235" y="-686.277" font-family="Times New Roman,serif" font-size="14.00">109</text>
</g>
<!-- 1518&#45;&#45;109 -->
<g id="edge45" class="edge"><title>1518&#45;&#45;109</title>
<path fill="none" stroke="#2cd324" d="M697.837,-521.729C708.707,-555.349 734.224,-634.269 746.035,-670.8"/>
</g>
<!-- 2416 -->
<g id="node38" class="node"><title>2416</title>
<ellipse fill="#1b1a21" stroke="black" cx="-508.391" cy="1225.69" rx="30.8593" ry="16.5"/>
<text text-anchor="middle" x="-508.391" y="1229.39" font-family="Times New Roman,serif" font-size="14.00" fill="white">2416</text>
</g>
<!-- 2416&#45;&#45;3718 -->
<g id="edge46" class="edge"><title>2416&#45;&#45;3718</title>
<path fill="none" stroke="#38c72c" d="M-503.934,1209.09C-493.289,1169.44 -466.491,1069.64 -455.947,1030.37"/>
</g>
<!-- 4030&#45;&#45;1896 -->
<g id="edge47" class="edge"><title>4030&#45;&#45;1896</title>
<path fill="none" stroke="#18e716" d="M170.403,1176.37C152.592,1144.92 115.57,1079.53 98.1719,1048.81"/>
</g>
<!-- 5567 -->
<g id="node45" class="node"><title>5567</title>
<polygon fill="#c259f2" stroke="black" points="457.558,1256.36 457.558,1241.69 437.727,1231.32 409.682,1231.32 389.851,1241.69 389.851,1256.36 409.682,1266.74 437.727,1266.74 457.558,1256.36"/>
<text text-anchor="middle" x="423.705" y="1252.73" font-family="Times New Roman,serif" font-size="14.00">5567</text>
</g>
<!-- 4030&#45;&#45;5567 -->
<g id="edge48" class="edge"><title>4030&#45;&#45;5567</title>
<path fill="none" stroke="#1de21a" d="M213.961,1201.59C260.372,1212.09 343.645,1230.92 390.081,1241.43"/>
</g>
<!-- 1697 -->
<g id="node43" class="node"><title>1697</title>
<polygon fill="#859051" stroke="black" points="123.171,330.421 84.7558,316.459 46.3409,330.421 61.0141,353.012 108.498,353.012 123.171,330.421"/>
<text text-anchor="middle" x="84.7558" y="340.365" font-family="Times New Roman,serif" font-size="14.00">1697</text>
</g>
<!-- 1697&#45;&#45;4195 -->
<g id="edge49" class="edge"><title>1697&#45;&#45;4195</title>
<path fill="none" stroke="#0df20c" d="M70.3667,321.645C54.7048,305.295 29.7325,279.227 13.5051,262.288"/>
</g>
<!-- 3897 -->
<g id="node49" class="node"><title>3897</title>
<ellipse fill="#426c90" stroke="black" cx="-669.186" cy="1061.95" rx="31.2258" ry="16.0303"/>
<text text-anchor="middle" x="-669.186" y="1065.65" font-family="Times New Roman,serif" font-size="14.00">3897</text>
</g>
<!-- 3718&#45;&#45;3897 -->
<g id="edge50" class="edge"><title>3718&#45;&#45;3897</title>
<path fill="none" stroke="#42bd31" d="M-480.484,1020.49C-522.103,1029.63 -598.487,1046.41 -640.171,1055.57"/>
</g>
</g>
</svg>
