<?xml version="1.0" encoding="UTF-8" standalone="no"?>
<!DOCTYPE svg PUBLIC "-//W3C//DTD SVG 1.1//EN"
 "http://www.w3.org/Graphics/SVG/1.1/DTD/svg11.dtd">
<!-- Generated by graphviz version 2.38.0 (20140413.2041)
 -->
<!-- Title: G Pages: 1 -->
<svg width="2777pt" height="1805pt"
 viewBox="0.00 0.00 2777.33 1804.61" xmlns="http://www.w3.org/2000/svg" xmlns:xlink="http://www.w3.org/1999/xlink">
<g id="graph0" class="graph" transform="scale(1 1) rotate(0) translate(1362.73 947.079)">
<title>G</title>
<polygon fill="white" stroke="none" points="-1362.73,857.53 -1362.73,-947.079 1414.6,-947.079 1414.6,857.53 -1362.73,857.53"/>
<!-- 1 -->
<g id="node1" class="node"><title>1</title>
<polygon fill="#60656c" stroke="black" points="-562.697,193.579 -616.697,156.265 -670.697,193.579 -650.071,253.952 -583.323,253.952 -562.697,193.579"/>
<text text-anchor="middle" x="-616.697" y="213.965" font-family="Times New Roman,serif" font-size="14.00">1</text>
</g>
<!-- 3635 -->
<g id="node10" class="node"><title>3635</title>
<polygon fill="#2f4432" stroke="black" points="-374.782,41.1594 -455.782,41.1594 -455.782,122.159 -374.782,122.159 -374.782,41.1594"/>
<text text-anchor="middle" x="-415.282" y="85.3594" font-family="Times New Roman,serif" font-size="14.00" fill="white">3635</text>
</g>
<!-- 1&#45;&#45;3635 -->
<g id="edge1" class="edge"><title>1&#45;&#45;3635</title>
<path fill="none" stroke="#17e815" d="M-575.937,184.24C-540.993,161.928 -490.907,129.947 -455.98,107.646"/>
</g>
<!-- 1321 -->
<g id="node31" class="node"><title>1321</title>
<polygon fill="#363f3d" stroke="black" points="-540.076,381.865 -572.774,367.7 -605.473,381.865 -592.983,404.785 -552.565,404.785 -540.076,381.865"/>
<text text-anchor="middle" x="-572.774" y="391.9" font-family="Times New Roman,serif" font-size="14.00" fill="white">1321</text>
</g>
<!-- 1&#45;&#45;1321 -->
<g id="edge3" class="edge"><title>1&#45;&#45;1321</title>
<path fill="none" stroke="#1ee11b" d="M-605.84,254.249C-596.694,291.298 -584.063,342.47 -577.369,369.588"/>
</g>
<!-- 1518 -->
<g id="node36" class="node"><title>1518</title>
<polygon fill="#43484c" stroke="black" points="-753.005,285.58 -789.159,273.488 -825.313,285.58 -811.503,305.146 -766.815,305.146 -753.005,285.58"/>
<text text-anchor="middle" x="-789.159" y="294.688" font-family="Times New Roman,serif" font-size="14.00" fill="white">1518</text>
</g>
<!-- 1&#45;&#45;1518 -->
<g id="edge2" class="edge"><title>1&#45;&#45;1518</title>
<path fill="none" stroke="#1ae517" d="M-658.445,229.806C-692.738,245.857 -739.956,267.958 -767.251,280.734"/>
</g>
<!-- 1027 -->
<g id="node2" class="node"><title>1027</title>
<polygon fill="#54714f" stroke="black" points="-194.501,-80.9777 -299.501,-80.9777 -299.501,24.0223 -194.501,24.0223 -194.501,-80.9777"/>
<text text-anchor="middle" x="-247.001" y="-24.7777" font-family="Times New Roman,serif" font-size="14.00">1027</text>
</g>
<!-- 52 -->
<g id="node4" class="node"><title>52</title>
<polygon fill="#81ca73" stroke="black" points="-266.2,-261.152 -364.2,-261.152 -364.2,-163.152 -266.2,-163.152 -266.2,-261.152"/>
<text text-anchor="middle" x="-315.2" y="-208.452" font-family="Times New Roman,serif" font-size="14.00">52</text>
</g>
<!-- 1027&#45;&#45;52 -->
<g id="edge6" class="edge"><title>1027&#45;&#45;52</title>
<path fill="none" stroke="#09f608" d="M-266.544,-81.1114C-276.109,-106.871 -287.555,-137.697 -296.941,-162.977"/>
</g>
<!-- 2 -->
<g id="node9" class="node"><title>2</title>
<polygon fill="#455e40" stroke="black" points="-24.3324,-15.1384 -107.332,-15.1384 -107.332,67.8616 -24.3324,67.8616 -24.3324,-15.1384"/>
<text text-anchor="middle" x="-65.8324" y="30.0616" font-family="Times New Roman,serif" font-size="14.00">2</text>
</g>
<!-- 1027&#45;&#45;2 -->
<g id="edge4" class="edge"><title>1027&#45;&#45;2</title>
<path fill="none" stroke="#06f905" d="M-194.113,-12.4685C-166.54,-4.12232 -133.296,5.94058 -107.56,13.7308"/>
</g>
<!-- 1027&#45;&#45;3635 -->
<g id="edge5" class="edge"><title>1027&#45;&#45;3635</title>
<path fill="none" stroke="#07f807" d="M-299.784,6.06818C-323.978,21.9026 -352.208,40.3787 -374.702,55.1009"/>
</g>
<!-- 825 -->
<g id="node3" class="node"><title>825</title>
<polygon fill="#492fac" stroke="black" points="-766.988,-648.421 -817.488,-597.921 -766.988,-547.421 -716.488,-597.921 -766.988,-648.421"/>
<text text-anchor="middle" x="-766.988" y="-594.221" font-family="Times New Roman,serif" font-size="14.00">825</text>
</g>
<!-- 3718 -->
<g id="node47" class="node"><title>3718</title>
<polygon fill="#5d9d6d" stroke="black" points="-575.928,-414.523 -619.928,-414.523 -619.928,-390.523 -575.928,-390.523 -575.928,-414.523"/>
<text text-anchor="middle" x="-597.928" y="-398.823" font-family="Times New Roman,serif" font-size="14.00">3718</text>
</g>
<!-- 825&#45;&#45;3718 -->
<g id="edge7" class="edge"><title>825&#45;&#45;3718</title>
<path fill="none" stroke="#55aa38" d="M-743.481,-570.752C-706.282,-527.758 -635.324,-445.745 -608.528,-414.774"/>
</g>
<!-- 2010 -->
<g id="node13" class="node"><title>2010</title>
<polygon fill="#74bb69" stroke="black" points="-428.239,-315.603 -501.239,-315.603 -501.239,-242.603 -428.239,-242.603 -428.239,-315.603"/>
<text text-anchor="middle" x="-464.739" y="-275.403" font-family="Times New Roman,serif" font-size="14.00">2010</text>
</g>
<!-- 52&#45;&#45;2010 -->
<g id="edge10" class="edge"><title>52&#45;&#45;2010</title>
<path fill="none" stroke="#0bf40a" d="M-364.579,-234.26C-385.337,-243.553 -409.058,-254.173 -428.203,-262.745"/>
</g>
<!-- 512 -->
<g id="node17" class="node"><title>512</title>
<polygon fill="#70b158" stroke="black" points="-187.93,-338.143 -251.93,-338.143 -251.93,-274.143 -187.93,-274.143 -187.93,-338.143"/>
<text text-anchor="middle" x="-219.93" y="-302.443" font-family="Times New Roman,serif" font-size="14.00">512</text>
</g>
<!-- 52&#45;&#45;512 -->
<g id="edge8" class="edge"><title>52&#45;&#45;512</title>
<path fill="none" stroke="#07f807" d="M-266.17,-260.524C-261.428,-265.202 -256.705,-269.862 -252.188,-274.318"/>
</g>
<!-- 1896 -->
<g id="node44" class="node"><title>1896</title>
<polygon fill="#5ca753" stroke="black" points="-292.04,-419.396 -336.04,-419.396 -336.04,-392.396 -292.04,-392.396 -292.04,-419.396"/>
<text text-anchor="middle" x="-314.04" y="-402.196" font-family="Times New Roman,serif" font-size="14.00">1896</text>
</g>
<!-- 52&#45;&#45;1896 -->
<g id="edge9" class="edge"><title>52&#45;&#45;1896</title>
<path fill="none" stroke="#09f609" d="M-314.906,-261.292C-314.646,-304.79 -314.283,-365.404 -314.122,-392.213"/>
</g>
<!-- 1975 -->
<g id="node5" class="node"><title>1975</title>
<polygon fill="#46de50" stroke="black" points="-333.857,-802.425 -428.857,-802.425 -428.857,-707.425 -333.857,-707.425 -333.857,-802.425"/>
<text text-anchor="middle" x="-381.357" y="-751.225" font-family="Times New Roman,serif" font-size="14.00">1975</text>
</g>
<!-- 2011 -->
<g id="node16" class="node"><title>2011</title>
<polygon fill="#62b139" stroke="black" points="-402.642,-943.079 -469.642,-943.079 -469.642,-876.079 -402.642,-876.079 -402.642,-943.079"/>
<text text-anchor="middle" x="-436.142" y="-905.879" font-family="Times New Roman,serif" font-size="14.00">2011</text>
</g>
<!-- 1975&#45;&#45;2011 -->
<g id="edge12" class="edge"><title>1975&#45;&#45;2011</title>
<path fill="none" stroke="#15ea14" d="M-398.242,-802.588C-406.667,-826.374 -416.657,-854.573 -424.264,-876.048"/>
</g>
<!-- 4030 -->
<g id="node41" class="node"><title>4030</title>
<polygon fill="#5fc684" stroke="black" points="-313.308,-601.944 -357.308,-601.944 -357.308,-571.944 -313.308,-571.944 -313.308,-601.944"/>
<text text-anchor="middle" x="-335.308" y="-583.244" font-family="Times New Roman,serif" font-size="14.00">4030</text>
</g>
<!-- 1975&#45;&#45;4030 -->
<g id="edge11" class="edge"><title>1975&#45;&#45;4030</title>
<path fill="none" stroke="#0df20c" d="M-368.284,-707.238C-358.552,-671.737 -345.883,-625.521 -339.449,-602.05"/>
</g>
<!-- 1831 -->
<g id="node6" class="node"><title>1831</title>
<polygon fill="#364c2a" stroke="black" points="157.653,462.817 157.653,424.71 130.706,397.763 92.5988,397.763 65.6526,424.71 65.6526,462.817 92.5988,489.763 130.706,489.763 157.653,462.817"/>
<text text-anchor="middle" x="111.653" y="447.463" font-family="Times New Roman,serif" font-size="14.00" fill="white">1831</text>
</g>
<!-- 3602 -->
<g id="node11" class="node"><title>3602</title>
<polygon fill="#2e4024" stroke="black" points="213.667,329.09 213.667,296.781 190.822,273.935 158.513,273.935 135.667,296.781 135.667,329.09 158.513,351.935 190.822,351.935 213.667,329.09"/>
<text text-anchor="middle" x="174.667" y="316.635" font-family="Times New Roman,serif" font-size="14.00" fill="white">3602</text>
</g>
<!-- 1831&#45;&#45;3602 -->
<g id="edge13" class="edge"><title>1831&#45;&#45;3602</title>
<path fill="none" stroke="#07f807" d="M132.811,399.836C140.534,383.802 149.19,365.83 156.618,350.409"/>
</g>
<!-- 6636 -->
<g id="node7" class="node"><title>6636</title>
<polygon fill="#436221" stroke="black" points="671.405,-129.635 671.405,-166.5 645.338,-192.567 608.473,-192.567 582.405,-166.5 582.405,-129.635 608.473,-103.567 645.338,-103.567 671.405,-129.635"/>
<text text-anchor="middle" x="626.905" y="-144.367" font-family="Times New Roman,serif" font-size="14.00">6636</text>
</g>
<!-- 1958 -->
<g id="node14" class="node"><title>1958</title>
<polygon fill="#2a4714" stroke="black" points="807.628,-251.189 807.628,-280.598 786.833,-301.394 757.423,-301.394 736.628,-280.598 736.628,-251.189 757.423,-230.394 786.833,-230.394 807.628,-251.189"/>
<text text-anchor="middle" x="772.128" y="-262.194" font-family="Times New Roman,serif" font-size="14.00" fill="white">1958</text>
</g>
<!-- 6636&#45;&#45;1958 -->
<g id="edge15" class="edge"><title>6636&#45;&#45;1958</title>
<path fill="none" stroke="#08f707" d="M661.69,-176.289C686.863,-196.714 720.453,-223.967 743.953,-243.034"/>
</g>
<!-- 2566 -->
<g id="node32" class="node"><title>2566</title>
<polygon fill="#466820" stroke="black" points="760.509,-10.9649 760.509,-27.5335 743.398,-39.2492 719.198,-39.2492 702.087,-27.5335 702.087,-10.9649 719.198,0.750805 743.398,0.750805 760.509,-10.9649"/>
<text text-anchor="middle" x="731.298" y="-15.5492" font-family="Times New Roman,serif" font-size="14.00">2566</text>
</g>
<!-- 6636&#45;&#45;2566 -->
<g id="edge14" class="edge"><title>6636&#45;&#45;2566</title>
<path fill="none" stroke="#07f807" d="M655.156,-113.207C674.961,-88.7673 700.64,-57.0806 716.538,-37.4622"/>
</g>
<!-- 2586 -->
<g id="node33" class="node"><title>2586</title>
<polygon fill="#2e6019" stroke="black" points="609.096,-287.999 609.096,-303.74 591.622,-314.87 566.911,-314.87 549.438,-303.74 549.438,-287.999 566.911,-276.87 591.622,-276.87 609.096,-287.999"/>
<text text-anchor="middle" x="579.267" y="-292.17" font-family="Times New Roman,serif" font-size="14.00">2586</text>
</g>
<!-- 6636&#45;&#45;2586 -->
<g id="edge17" class="edge"><title>6636&#45;&#45;2586</title>
<path fill="none" stroke="#0df20c" d="M612.483,-192.814C603.446,-220.852 592.259,-255.559 585.448,-276.69"/>
</g>
<!-- 5692 -->
<g id="node39" class="node"><title>5692</title>
<polygon fill="#78b446" stroke="black" points="470.234,-93.1887 426.234,-93.1887 426.234,-61.1887 470.234,-61.1887 470.234,-93.1887"/>
<text text-anchor="middle" x="448.234" y="-73.4887" font-family="Times New Roman,serif" font-size="14.00">5692</text>
</g>
<!-- 6636&#45;&#45;5692 -->
<g id="edge16" class="edge"><title>6636&#45;&#45;5692</title>
<path fill="none" stroke="#0af50a" d="M582.28,-130.364C546.723,-116.259 498.435,-97.1035 470.575,-86.0512"/>
</g>
<!-- 1839 -->
<g id="node8" class="node"><title>1839</title>
<polygon fill="#568442" stroke="black" points="88.3099,153.267 2.30993,153.267 2.30993,239.267 88.3099,239.267 88.3099,153.267"/>
<text text-anchor="middle" x="45.3099" y="199.967" font-family="Times New Roman,serif" font-size="14.00">1839</text>
</g>
<!-- 3794 -->
<g id="node23" class="node"><title>3794</title>
<polygon fill="#74b25e" stroke="black" points="6.60217,329.093 -46.3978,329.093 -46.3978,382.093 6.60217,382.093 6.60217,329.093"/>
<text text-anchor="middle" x="-19.8978" y="359.293" font-family="Times New Roman,serif" font-size="14.00">3794</text>
</g>
<!-- 1839&#45;&#45;3794 -->
<g id="edge19" class="edge"><title>1839&#45;&#45;3794</title>
<path fill="none" stroke="#16e914" d="M27.6638,239.383C15.9712,267.952 1.0019,304.527 -8.98983,328.94"/>
</g>
<!-- 4195 -->
<g id="node46" class="node"><title>4195</title>
<polygon fill="#598045" stroke="black" points="143.549,89.2337 99.5489,89.2337 99.5489,114.234 143.549,114.234 143.549,89.2337"/>
<text text-anchor="middle" x="121.549" y="105.434" font-family="Times New Roman,serif" font-size="14.00">4195</text>
</g>
<!-- 1839&#45;&#45;4195 -->
<g id="edge18" class="edge"><title>1839&#45;&#45;4195</title>
<path fill="none" stroke="#04fb04" d="M80.0829,153.15C91.3932,139.125 103.1,124.61 111.178,114.594"/>
</g>
<!-- 2&#45;&#45;4195 -->
<g id="edge20" class="edge"><title>2&#45;&#45;4195</title>
<path fill="none" stroke="#07f807" d="M-24.2464,43.0891C13.922,58.4419 69.007,80.5993 99.37,92.8125"/>
</g>
<!-- 131 -->
<g id="node28" class="node"><title>131</title>
<polygon fill="#6c9070" stroke="black" points="-378.211,201.428 -423.211,201.428 -423.211,246.428 -378.211,246.428 -378.211,201.428"/>
<text text-anchor="middle" x="-400.711" y="227.628" font-family="Times New Roman,serif" font-size="14.00">131</text>
</g>
<!-- 3635&#45;&#45;131 -->
<g id="edge21" class="edge"><title>3635&#45;&#45;131</title>
<path fill="none" stroke="#09f609" d="M-411.106,122.428C-408.483,148.046 -405.196,180.133 -403.029,201.291"/>
</g>
<!-- 1765 -->
<g id="node12" class="node"><title>1765</title>
<polygon fill="#83be69" stroke="black" points="294.399,479.355 218.399,479.355 218.399,555.355 294.399,555.355 294.399,479.355"/>
<text text-anchor="middle" x="256.399" y="521.055" font-family="Times New Roman,serif" font-size="14.00">1765</text>
</g>
<!-- 3602&#45;&#45;1765 -->
<g id="edge23" class="edge"><title>3602&#45;&#45;1765</title>
<path fill="none" stroke="#0bf40a" d="M190.426,352.35C205.038,388.896 226.642,442.93 241.104,479.1"/>
</g>
<!-- 3602&#45;&#45;4195 -->
<g id="edge22" class="edge"><title>3602&#45;&#45;4195</title>
<path fill="none" stroke="#0bf40a" d="M164.801,273.705C152.62,225.272 132.56,145.515 124.777,114.567"/>
</g>
<!-- 2563 -->
<g id="node40" class="node"><title>2563</title>
<polygon fill="#170412" stroke="black" points="170.702,703.901 126.702,726.901 170.702,749.901 214.702,726.901 170.702,703.901"/>
<text text-anchor="middle" x="170.702" y="730.601" font-family="Times New Roman,serif" font-size="14.00" fill="white">2563</text>
</g>
<!-- 1765&#45;&#45;2563 -->
<g id="edge25" class="edge"><title>1765&#45;&#45;2563</title>
<path fill="none" stroke="#d22d25" d="M240.681,555.789C222.271,600.805 192.51,673.577 178.486,707.869"/>
</g>
<!-- 74 -->
<g id="node48" class="node"><title>74</title>
<polygon fill="#82b98c" stroke="black" points="388.878,648.278 358.878,648.278 358.878,672.278 388.878,672.278 388.878,648.278"/>
<text text-anchor="middle" x="373.878" y="663.978" font-family="Times New Roman,serif" font-size="14.00">74</text>
</g>
<!-- 1765&#45;&#45;74 -->
<g id="edge24" class="edge"><title>1765&#45;&#45;74</title>
<path fill="none" stroke="#17e815" d="M287.881,555.656C313.165,586.415 347.105,627.706 363.776,647.988"/>
</g>
<!-- 2010&#45;&#45;3718 -->
<g id="edge26" class="edge"><title>2010&#45;&#45;3718</title>
<path fill="none" stroke="#11ee10" d="M-501.487,-313.155C-529.206,-338.841 -565.624,-372.588 -584.805,-390.362"/>
</g>
<!-- 5864 -->
<g id="node22" class="node"><title>5864</title>
<polygon fill="#20450f" stroke="black" points="829.477,-434.019 829.477,-456.801 813.368,-472.91 790.587,-472.91 774.477,-456.801 774.477,-434.019 790.587,-417.91 813.368,-417.91 829.477,-434.019"/>
<text text-anchor="middle" x="801.977" y="-441.71" font-family="Times New Roman,serif" font-size="14.00" fill="white">5864</text>
</g>
<!-- 1958&#45;&#45;5864 -->
<g id="edge27" class="edge"><title>1958&#45;&#45;5864</title>
<path fill="none" stroke="#0af509" d="M778.097,-301.79C783.779,-335.965 792.21,-386.67 797.386,-417.795"/>
</g>
<!-- 109 -->
<g id="node51" class="node"><title>109</title>
<polygon fill="#da78a1" stroke="black" points="953.578,-245.391 901.426,-196.56 1005.73,-196.56 953.578,-245.391"/>
<text text-anchor="middle" x="953.578" y="-209.137" font-family="Times New Roman,serif" font-size="14.00">109</text>
</g>
<!-- 1958&#45;&#45;109 -->
<g id="edge28" class="edge"><title>1958&#45;&#45;109</title>
<path fill="none" stroke="#db241f" d="M807.977,-255.412C842.989,-245.174 895.468,-229.829 926.934,-220.628"/>
</g>
<!-- 3408 -->
<g id="node15" class="node"><title>3408</title>
<polygon fill="#03011d" stroke="black" points="1021.92,-804.494 987.424,-769.994 1021.92,-735.494 1056.42,-769.994 1021.92,-804.494"/>
<text text-anchor="middle" x="1021.92" y="-766.294" font-family="Times New Roman,serif" font-size="14.00" fill="white">3408</text>
</g>
<!-- 4943 -->
<g id="node37" class="node"><title>4943</title>
<polygon fill="#010b14" stroke="black" points="952.332,-641.277 909.839,-624.277 952.332,-607.277 994.825,-624.277 952.332,-641.277"/>
<text text-anchor="middle" x="952.332" y="-620.577" font-family="Times New Roman,serif" font-size="14.00" fill="white">4943</text>
</g>
<!-- 3408&#45;&#45;4943 -->
<g id="edge29" class="edge"><title>3408&#45;&#45;4943</title>
<path fill="none" stroke="#33cc29" d="M1010.74,-746.582C996.219,-716.172 971.303,-664 959.256,-638.775"/>
</g>
<!-- 328 -->
<g id="node18" class="node"><title>328</title>
<polygon fill="#585776" stroke="black" points="-937.386,334.861 -968.386,313.441 -999.386,334.861 -987.545,369.52 -949.227,369.52 -937.386,334.861"/>
<text text-anchor="middle" x="-968.386" y="348.141" font-family="Times New Roman,serif" font-size="14.00">328</text>
</g>
<!-- 328&#45;&#45;1518 -->
<g id="edge30" class="edge"><title>328&#45;&#45;1518</title>
<path fill="none" stroke="#40bf30" d="M-937.167,335.13C-902.867,324.9 -848.351,308.642 -815.93,298.972"/>
</g>
<!-- 1376 -->
<g id="node19" class="node"><title>1376</title>
<polygon fill="#103928" stroke="black" points="777.125,-625.691 777.125,-650.544 759.552,-668.118 734.699,-668.118 717.125,-650.544 717.125,-625.691 734.699,-608.118 759.552,-608.118 777.125,-625.691"/>
<text text-anchor="middle" x="747.125" y="-634.418" font-family="Times New Roman,serif" font-size="14.00" fill="white">1376</text>
</g>
<!-- 1376&#45;&#45;5864 -->
<g id="edge31" class="edge"><title>1376&#45;&#45;5864</title>
<path fill="none" stroke="#2bd424" d="M755.696,-608.007C766.212,-571.063 783.895,-508.936 794.089,-473.123"/>
</g>
<!-- 3957 -->
<g id="node20" class="node"><title>3957</title>
<polygon fill="#a55970" stroke="black" points="851.598,69.7601 803.739,113.26 899.458,113.26 851.598,69.7601"/>
<text text-anchor="middle" x="851.598" y="102.46" font-family="Times New Roman,serif" font-size="14.00">3957</text>
</g>
<!-- 3957&#45;&#45;2566 -->
<g id="edge32" class="edge"><title>3957&#45;&#45;2566</title>
<path fill="none" stroke="#f80707" d="M835.871,83.3325C813.325,61.2159 771.966,20.644 748.586,-2.29032"/>
</g>
<!-- 873 -->
<g id="node21" class="node"><title>873</title>
<ellipse fill="#1a151a" stroke="black" cx="-1330.23" cy="24.6673" rx="28.5" ry="28.5"/>
<text text-anchor="middle" x="-1330.23" y="28.3673" font-family="Times New Roman,serif" font-size="14.00" fill="white">873</text>
</g>
<!-- 5268 -->
<g id="node50" class="node"><title>5268</title>
<ellipse fill="#201a1e" stroke="black" cx="-1151.51" cy="78.9142" rx="31.2258" ry="16.0303"/>
<text text-anchor="middle" x="-1151.51" y="82.6142" font-family="Times New Roman,serif" font-size="14.00" fill="white">5268</text>
</g>
<!-- 873&#45;&#45;5268 -->
<g id="edge33" class="edge"><title>873&#45;&#45;5268</title>
<path fill="none" stroke="#22dd1d" d="M-1302.69,33.0245C-1268.91,43.2779 -1212.02,60.5492 -1178.49,70.7252"/>
</g>
<!-- 5864&#45;&#45;4943 -->
<g id="edge34" class="edge"><title>5864&#45;&#45;4943</title>
<path fill="none" stroke="#25da20" d="M819.816,-466.631C851.242,-504.016 915.581,-580.556 941.326,-611.183"/>
</g>
<!-- 2502 -->
<g id="node24" class="node"><title>2502</title>
<polygon fill="#121718" stroke="black" points="-750.937,495.384 -781.373,477.764 -811.808,495.384 -800.183,523.894 -762.563,523.894 -750.937,495.384"/>
<text text-anchor="middle" x="-781.373" y="506.964" font-family="Times New Roman,serif" font-size="14.00" fill="white">2502</text>
</g>
<!-- 3717 -->
<g id="node34" class="node"><title>3717</title>
<polygon fill="#020310" stroke="black" points="-885.604,721.991 -925.544,740.491 -885.604,758.991 -845.665,740.491 -885.604,721.991"/>
<text text-anchor="middle" x="-885.604" y="744.191" font-family="Times New Roman,serif" font-size="14.00" fill="white">3717</text>
</g>
<!-- 2502&#45;&#45;3717 -->
<g id="edge36" class="edge"><title>2502&#45;&#45;3717</title>
<path fill="none" stroke="#36c92a" d="M-790.44,523.901C-810.945,570.57 -860.511,683.378 -878.733,724.852"/>
</g>
<!-- 2502&#45;&#45;1518 -->
<g id="edge35" class="edge"><title>2502&#45;&#45;1518</title>
<path fill="none" stroke="#16e914" d="M-782.297,478.08C-783.944,433.162 -787.338,340.619 -788.637,305.203"/>
</g>
<!-- 5617 -->
<g id="node25" class="node"><title>5617</title>
<polygon fill="#f22acf" stroke="black" points="1173.52,-184.986 1123.91,-147.486 1223.12,-147.486 1173.52,-184.986"/>
<text text-anchor="middle" x="1173.52" y="-156.286" font-family="Times New Roman,serif" font-size="14.00">5617</text>
</g>
<!-- 5567 -->
<g id="node45" class="node"><title>5567</title>
<polygon fill="#e42c78" stroke="black" points="1348.38,-300.282 1285.93,-251.451 1410.83,-251.451 1348.38,-300.282"/>
<text text-anchor="middle" x="1348.38" y="-264.028" font-family="Times New Roman,serif" font-size="14.00">5567</text>
</g>
<!-- 5617&#45;&#45;5567 -->
<g id="edge37" class="edge"><title>5617&#45;&#45;5567</title>
<path fill="none" stroke="#23dc1e" d="M1191.9,-171.312C1222.94,-190.438 1285.86,-229.208 1321.74,-251.314"/>
</g>
<!-- 3897 -->
<g id="node49" class="node"><title>3897</title>
<polygon fill="#d340d5" stroke="black" points="1340.02,-49.2107 1277.57,-0.37998 1402.48,-0.37998 1340.02,-49.2107"/>
<text text-anchor="middle" x="1340.02" y="-12.9569" font-family="Times New Roman,serif" font-size="14.00">3897</text>
</g>
<!-- 5617&#45;&#45;3897 -->
<g id="edge39" class="edge"><title>5617&#45;&#45;3897</title>
<path fill="none" stroke="#32cd28" d="M1188.29,-147.266C1218.3,-121.437 1286.38,-62.8319 1320.2,-33.7224"/>
</g>
<!-- 5617&#45;&#45;109 -->
<g id="edge38" class="edge"><title>5617&#45;&#45;109</title>
<path fill="none" stroke="#2dd225" d="M1148.29,-166.048C1112.29,-174.698 1045.57,-190.732 1000.38,-201.591"/>
</g>
<!-- 2239 -->
<g id="node26" class="node"><title>2239</title>
<ellipse fill="#6c6370" stroke="black" cx="-984.056" cy="182.86" rx="25.1298" ry="24"/>
<text text-anchor="middle" x="-984.056" y="186.56" font-family="Times New Roman,serif" font-size="14.00">2239</text>
</g>
<!-- 2239&#45;&#45;1518 -->
<g id="edge41" class="edge"><title>2239&#45;&#45;1518</title>
<path fill="none" stroke="#1fe01b" d="M-962.078,195.054C-923.85,216.262 -845.697,259.621 -809.01,279.975"/>
</g>
<!-- 3662 -->
<g id="node42" class="node"><title>3662</title>
<polygon fill="#a17fe4" stroke="black" points="-1223.55,310.081 -1286,358.912 -1161.09,358.912 -1223.55,310.081"/>
<text text-anchor="middle" x="-1223.55" y="346.335" font-family="Times New Roman,serif" font-size="14.00">3662</text>
</g>
<!-- 2239&#45;&#45;3662 -->
<g id="edge42" class="edge"><title>2239&#45;&#45;3662</title>
<path fill="none" stroke="#51ae37" d="M-1004.89,196.76C-1049.61,226.597 -1154.51,296.576 -1200.85,327.493"/>
</g>
<!-- 2239&#45;&#45;5268 -->
<g id="edge40" class="edge"><title>2239&#45;&#45;5268</title>
<path fill="none" stroke="#1fe01b" d="M-1005.26,169.696C-1037.74,149.537 -1099.37,111.282 -1131.26,91.4856"/>
</g>
<!-- 1720 -->
<g id="node27" class="node"><title>1720</title>
<polygon fill="#446235" stroke="black" points="267.84,-192.616 220.84,-192.616 220.84,-145.616 267.84,-145.616 267.84,-192.616"/>
<text text-anchor="middle" x="244.34" y="-165.416" font-family="Times New Roman,serif" font-size="14.00">1720</text>
</g>
<!-- 1697 -->
<g id="node43" class="node"><title>1697</title>
<polygon fill="#6aa842" stroke="black" points="295.739,-30.0264 251.739,-30.0264 251.739,-2.02636 295.739,-2.02636 295.739,-30.0264"/>
<text text-anchor="middle" x="273.739" y="-12.3264" font-family="Times New Roman,serif" font-size="14.00">1697</text>
</g>
<!-- 1720&#45;&#45;1697 -->
<g id="edge43" class="edge"><title>1720&#45;&#45;1697</title>
<path fill="none" stroke="#0ef10d" d="M248.869,-145.531C255.054,-113.324 265.951,-56.5812 271.013,-30.2227"/>
</g>
<!-- 3077 -->
<g id="node29" class="node"><title>3077</title>
<ellipse fill="#6c4d6a" stroke="black" cx="-896.384" cy="473.33" rx="25.6143" ry="22"/>
<text text-anchor="middle" x="-896.384" y="477.03" font-family="Times New Roman,serif" font-size="14.00">3077</text>
</g>
<!-- 3077&#45;&#45;1518 -->
<g id="edge44" class="edge"><title>3077&#45;&#45;1518</title>
<path fill="none" stroke="#36c92a" d="M-884.705,453.469C-862.994,416.548 -816.89,338.146 -797.758,305.611"/>
</g>
<!-- 1437 -->
<g id="node30" class="node"><title>1437</title>
<polygon fill="#67cc50" stroke="black" points="267.453,146.34 223.453,146.34 223.453,188.34 267.453,188.34 267.453,146.34"/>
<text text-anchor="middle" x="245.453" y="171.04" font-family="Times New Roman,serif" font-size="14.00">1437</text>
</g>
<!-- 1808 -->
<g id="node35" class="node"><title>1808</title>
<polygon fill="#6ac051" stroke="black" points="396.671,262.119 352.671,262.119 352.671,298.119 396.671,298.119 396.671,262.119"/>
<text text-anchor="middle" x="374.671" y="283.819" font-family="Times New Roman,serif" font-size="14.00">1808</text>
</g>
<!-- 1437&#45;&#45;1808 -->
<g id="edge45" class="edge"><title>1437&#45;&#45;1808</title>
<path fill="none" stroke="#09f609" d="M267.667,186.727C291.912,207.888 330.419,241.496 354.027,262.101"/>
</g>
<!-- 1437&#45;&#45;4195 -->
<g id="edge46" class="edge"><title>1437&#45;&#45;4195</title>
<path fill="none" stroke="#0df20c" d="M223.302,155.611C200.888,143.743 166.421,125.493 143.926,113.582"/>
</g>
<!-- 2416 -->
<g id="node38" class="node"><title>2416</title>
<polygon fill="#798e8a" stroke="black" points="477.273,831.931 439.43,820.53 401.587,831.931 416.042,850.379 462.818,850.379 477.273,831.931"/>
<text text-anchor="middle" x="439.43" y="840.73" font-family="Times New Roman,serif" font-size="14.00">2416</text>
</g>
<!-- 2416&#45;&#45;74 -->
<g id="edge47" class="edge"><title>2416&#45;&#45;74</title>
<path fill="none" stroke="#23dc1e" d="M433.841,821.96C421.085,787.565 390.031,703.832 378.387,672.435"/>
</g>
<!-- 5692&#45;&#45;1697 -->
<g id="edge48" class="edge"><title>5692&#45;&#45;1697</title>
<path fill="none" stroke="#0ef10d" d="M426.134,-69.4425C392.661,-57.7098 329.464,-35.5586 295.934,-23.8061"/>
</g>
<!-- 4030&#45;&#45;1896 -->
<g id="edge49" class="edge"><title>4030&#45;&#45;1896</title>
<path fill="none" stroke="#11ee10" d="M-333.531,-571.819C-329.478,-537.315 -319.597,-453.199 -315.679,-419.849"/>
</g>
<!-- 1697&#45;&#45;4195 -->
<g id="edge50" class="edge"><title>1697&#45;&#45;4195</title>
<path fill="none" stroke="#08f707" d="M255.381,-1.82175C225.497,21.3017 166.792,66.7258 138.111,88.9186"/>
</g>
</g>
</svg>
